<?xml version="1.0" encoding="utf-8"?>
<!-- Generator: Adobe Illustrator 21.0.0, SVG Export Plug-In . SVG Version: 6.00 Build 0)  -->
<svg version="1.1" id="Слой_1" xmlns="http://www.w3.org/2000/svg" xmlns:xlink="http://www.w3.org/1999/xlink" x="0px" y="0px"
	 viewBox="0 0 4000 2714" style="enable-background:new 0 0 4000 2714;" xml:space="preserve">
<style type="text/css">
	.st0{display:none;opacity:0.2;}
	.st1{display:inline;fill:#E7F3FE;}
	.st2{fill:#A2DFF2;}
	.st3{fill:#96CFE0;}
	.st4{fill:#F37168;}
	.st5{fill:#2E5B9A;}
	.st6{fill:#F09959;}
	.st7{fill:#E38540;}
	.st8{fill:#75A1DE;}
	.st9{fill:#A86B48;}
	.st10{fill:#3E6BAB;}
	.st11{fill:#F0CEB4;}
	.st12{fill:#F7A96F;}
	.st13{fill:#A8CEFF;}
	.st14{fill:#6695D6;}
	.st15{fill:#303C60;}
	.st16{fill:#D54A41;}
	.st17{opacity:0.5;fill:url(#SVGID_1_);enable-background:new    ;}
	.st18{fill:#9EC8FF;}
	.st19{fill:#FFFFFF;}
	.st20{opacity:0.5;fill:#FFFFFF;enable-background:new    ;}
	.st21{opacity:0.5;}
	.st22{fill:#F39892;}
	.st23{fill:#9CD499;}
	.st24{clip-path:url(#SVGID_3_);}
	.st25{opacity:0.4;fill:#FFFFFF;}
	.st26{fill:#E7F3FE;}
</style>
<g class="st0">
	<path class="st1" d="M3223.3,1120.8c144.9-150.6-565.4-674.8-1152-722.6c-540-44-1253.5,169-529.2,483.9
		C2232.3,1182.1,3147.6,1199.5,3223.3,1120.8z"/>
	<path class="st1" d="M388.2,1015c338.3-428,1048.7,24.1,1656.6,133.9s1596.6-64.7,1594.1,417c-2.6,513.5-221.9,802.4-1424.5,940.3
		S461.1,2219,303.8,1766.3C181.4,1413.9,297.8,1129.4,388.2,1015z"/>
</g>
<path class="st2" d="M2707.7,1566.7c-49.6,100.8-111.9,376.2-128.9,391.3s-115.1,73.6-132,101.9c-16.9,28.3-9.4,18.9-1.9,20.8
	c7.5,1.9,433.9,3.8,433.9,3.8s-49-292.4-54.7-294.3S2707.7,1566.7,2707.7,1566.7z"/>
<path class="st3" d="M2637.1,2083c78.3,0.6,160.9,1,206.4,1.2l-62.3-372.4c-33.2-64.4-73.5-145.1-73.5-145.1
	c-6.3,12.7-12.7,28.2-19.3,45.6c-6.5,279.7,33.8,358.1,3.6,408C2668.4,2059.1,2646.9,2076.5,2637.1,2083z"/>
<path class="st2" d="M2969.2,1445.1c70.8,65.4,228.4,127.3,228.4,127.3s23.9,221.3,7.6,346.5s-7.3,150.7-7.3,150.7l-340.4,2.9
	c0,0-28.3-63.4-108.1-251.6c-50.8-119.8-41.8-254.2-41.8-254.2l197.9-89L2969.2,1445.1z"/>
<path class="st3" d="M2873,2069.6h325c0,0-9.1-25.4,7.3-150.7c13.5-103.2-0.4-271.4-5.7-327.6l-29.5-12.7
	c-74.2,21.4-117,132.1-129.5,240.2c-8.4,72.4-128.3,143.6-206.7,182.8C2859.4,2050.9,2873,2069.6,2873,2069.6z"/>
<path class="st3" d="M2914.5,1518.7c0,0,3,93.4,19,92.4s108.5-118.5,108.5-118.5l-15.8-7.5L2914.5,1518.7z"/>
<path class="st3" d="M2890.5,1513.3c0,0-20.1,86-30.1,84s-23.5-89.4-23.5-89.4L2890.5,1513.3z"/>
<path class="st4" d="M2886.8,1507.6l27.7,3l10.7,33c0,0-24.4,28.5-24.9,40s5.4,54.5,5.7,93.5s-14,194.2-7.5,289.3l6.5,95.1
	l-55.7,2.2c0,0-3-104.6,0-216.6s34.9-263.5,34.9-263.5l-12.6-38.5L2886.8,1507.6z"/>
<path class="st5" d="M2793.3,1213c-39.2,87.3,7.8,168.1,6.4,164.7s59.3-147.3,59.3-147.3L2793.3,1213z"/>
<path class="st6" d="M2941.8,1277.5l49.7,181.6c1.4,5.1,0.2,10.6-3.1,14.7c-11.6,14.3-28.3,43.9-61.7,53.4c-6.5,1.8-14.5,2.3-21,2.4
	c-6.8,0-12.7-4.8-14-11.5l-33.3-172.3L2941.8,1277.5z"/>
<path class="st7" d="M2932.3,1292.7l-18.2,7.4l-55.8,45.7l21.4,109.2l8.5,43.5C2939.1,1466.8,2957.7,1415.1,2932.3,1292.7z"/>
<path class="st6" d="M2929.2,1359.8c0,60.8-36.6,108.6-81.8,106.9s-73-35.9-81.9-113.1c-7-60.6,10.4-131,55.6-129.3
	C2866.3,1226,2929.1,1299.1,2929.2,1359.8z"/>
<path class="st2" d="M3197.6,1572.4c65.8,14.8,78,148.4,99.4,289.3c2.5,16.2,15.1,153.4,15.1,153.4c-0.1,16.1-9.4,30.8-23.9,37.7
	c-21.5,10.8-30.2,18.9-154.7,20.1c-119.6,1.2-273.8-3.8-273.8-3.8s-1.4-44.5,10.9-66.2c18.4-32.7,207.5-79.7,225.1-82.2
	c2.5-35.2-17.4-162.6,10.1-249c18.9-59.4,39.1-90.6,64.6-98.7C3178.8,1570.4,3187.9,1570.2,3197.6,1572.4z"/>
<path class="st3" d="M2927.3,2071.9c59,0.9,139.9,1.7,206.1,1.1c124.5-1.3,133.2-9.4,154.7-20.1c25.1-12.6,26.4-34,26.4-34
	s-12.7-146-15.1-162.2c-13.8-94.3-28.8-202.3-63.6-254.4c32.7,95.8,38,176.7,38.6,211.3c0.3,17.5-1.3,41.4-6.4,58.2
	c-5.7,18.6-20.1,30.2-42.8,23.9c-45.3-12.6-101.9,13.8-101.9,13.8s42.8-15.1,83-1.3s123.3,105.6,32.7,139.6
	C3211.4,2058.2,3045.4,2066.7,2927.3,2071.9z"/>
<path class="st3" d="M2880.7,2007.1c0,0,16.8-28.5,51.1-28.5s31.9,56.2,26.8,74.6c-5.1,18.4-25.1,19.3-25.1,19.3l-69.2-1.8
	L2880.7,2007.1z"/>
<path class="st8" d="M2200,2073.4h577.7c0-16-13-29-29-29H2200V2073.4z"/>
<path class="st6" d="M2868.2,2002.6c-69.6-32-89.3-23.9-105.1-30c-39.1-15.1-50-5.9-81.9,62.8c-6.4,13.7,8.7,15.9,23.8,17.2
	c15.1,1.3,35.9-26.4,42-29.2s22.1-3.2,22.1-3.2s-5-0.4-13.8,14s-18.5,19.5-6.8,20.5s15-18.1,36.4-12s17,26.4,71.5,24.6
	c51.7-1.7,90.3,3.5,92.2-29.2c1.8-31,6.5-46.1-22.3-54.1C2903.9,1977.9,2868.2,2002.6,2868.2,2002.6z"/>
<path class="st9" d="M2869.1,2002.7c48.5-1.3,29.3,57.3,23.9,61.9c-5.4,4.6,26.6,4,26.6,4s17-22.7,6.8-51.4s-35.1-32-35.1-32
	l-22.3,9.9L2869.1,2002.7z"/>
<ellipse transform="matrix(0.9987 -5.181083e-02 5.181083e-02 0.9987 -99.3447 152.426)" class="st5" cx="2890.3" cy="1992.4" rx="27.2" ry="13.5"/>
<ellipse transform="matrix(0.9987 -5.181083e-02 5.181083e-02 0.9987 -99.1756 152.3491)" class="st10" cx="2888.9" cy="1989.1" rx="24.3" ry="12.1"/>
<ellipse transform="matrix(0.9987 -5.181083e-02 5.181083e-02 0.9987 -99.059 152.2475)" class="st11" cx="2887" cy="1986.8" rx="17.5" ry="8.7"/>
<path class="st6" d="M2490.9,2007.1c35.8-19.9,79.6-13.3,95.5,6.6s18.6,33.2-17.2,33.2s-107.4,2.7-119.3,1.3
	S2490.9,2007.1,2490.9,2007.1z"/>
<path class="st6" d="M2537.5,2000.2c38.5-9.3,64.7,13.1,96.8,34.5c27.9,18.6,33.4,36.6,2.6,21.2c-45.1-22.5-71.6-25.2-71.6-25.2
	L2537.5,2000.2z"/>
<path class="st6" d="M2494.5,2017.6c-19.4,0-36.4-6.2-50.1-5.1s-57.1,45.7-50.3,49.1c0.5,0.3,1.1,0.5,1.6,0.7
	c10.4,3.7,22-0.4,27.8-9.7c6.1-9.9,16.1-21.3,27.8-17.2c19.4,6.8,39.8,6.2,39.8,6.2L2494.5,2017.6z"/>
<path class="st12" d="M2497.6,2054.8c-19.9-8,11.9-74.3,22.5-74.3s50.4,31.8,50.4,31.8s-9.4,5.3-41.1-5.3
	c-8-2.7-14.6,42.4-23.9,47.7S2497.6,2054.8,2497.6,2054.8z"/>
<polygon class="st2" points="2881.2,1462.9 2890.5,1512.7 2863.3,1571.6 2833.7,1509.1 "/>
<path class="st5" d="M2771.8,1388c11.4,72.1,38.1,79.8,57.1,86.3s89.6-23.1,97.2-42.9c19.3-50.5-11.8-88.6-5.5-89.1
	s15.2,16.1,35.6,36.1c1.9,1.9,15,14.1,14.7,9.3c-4.4-65.7,25.4-91.8,5.4-155.4c-14.7-46.8-44.5-37.4-44.5-37.4s-27-36.5-87.3-20.6
	c-40.4,10.6-73.9,33.3-114.1,52s69.6,97.3,117.9,52.2s35.5,36.9,45.2,41.3s4.3,0,15.5,38.7s-34,73.6-47.8,79.7
	c-43.9,19.3-52.9,13.1-66.1-2.3C2783.6,1422.4,2771.8,1388,2771.8,1388z"/>
<path class="st6" d="M2957.4,1330.7c-1.9,19.1-12.6,33.1-23.9,31.4s-14.3-16.4-16.9-37.6c-2.4-19.2,12.6-33.1,23.9-31.4
	S2959.3,1311.6,2957.4,1330.7z"/>
<path class="st2" d="M2987.3,1444.1l49.4,46c0,0-95,89.5-103.3,88.5s-22.2-76-22.2-76L2987.3,1444.1z"/>
<path class="st2" d="M2912.7,1501.5c-9.1,4.3-6.2,17.3-10.1,21.8s-6.2,5.7-9.3-0.6s-2.6-20.5-5-21.3s-20.8,56.6-20.8,56.6
	s13.5-36.7,16.5-32.7s0.6,7.7,11.8,8.4s25.3-4,25.3-4L2912.7,1501.5z"/>
<path class="st13" d="M2199.3,2073.4h308.6l-131-288.3c-3.8-8.4-12.2-13.8-21.4-13.8h-279.1c-5.1,0-9.2,4.1-9.2,9.2
	c0,1.3,0.3,2.6,0.8,3.8L2199.3,2073.4z"/>
<path class="st8" d="M2046.3,1771.3h284.8c9.2,0,17.6,5.4,21.4,13.8l131,288.3h-314.2l-131.4-289.1c-2.1-4.6,0-10.1,4.6-12.2
	C2043.7,1771.6,2045,1771.3,2046.3,1771.3z"/>
<ellipse transform="matrix(0.9006 -0.4346 0.4346 0.9006 -618.6001 1154.1102)" class="st14" cx="2214.3" cy="1929.7" rx="21.8" ry="45"/>
<path class="st15" d="M1092.3,1553.5c-4.8,0-9.5-0.2-14.2-0.5c-3.8-0.2-7.8-0.4-11.6-0.4c-1.3-0.1-2.4-1.2-2.3-2.6
	c0.1-1.2,1.1-2.2,2.3-2.3c3.9,0.1,7.9,0.3,11.8,0.4c29,1.5,58.9,3,88.1-53.1c12.7-24.4,26.5-71.7,23.6-125.1
	c-2.3-43.7-17.1-105.8-74.5-153.8c-1-0.9-1.1-2.4-0.2-3.4s2.3-1.1,3.3-0.3c58.7,49.1,73.8,112.6,76.2,157.2
	c2.9,54.3-11.2,102.7-24.2,127.6C1145.1,1546.8,1117.7,1553.5,1092.3,1553.5z"/>
<path class="st15" d="M1083.2,1542c-1.1,0-2.3,0-3.4-0.1c-1.3,0-2.4-1.1-2.4-2.5c0-1.3,1.1-2.4,2.5-2.4c0.1,0,0.1,0,0.2,0
	c1,0.1,2.1,0.1,3.1,0.1c30.2,0,58.2-21.4,77-59.2c31-62.2,34-164.2-21.5-230.8c-0.9-1-0.9-2.5,0.1-3.4s2.5-0.9,3.4,0.1
	c0.1,0.1,0.1,0.2,0.2,0.2c56.8,68.2,53.8,172.6,22.1,236.1C1144.9,1519.6,1115.4,1542,1083.2,1542z"/>
<path class="st15" d="M974.8,1231.2c87.5-67.9,169.6-31.9,199.1,60c27.5,85.8-7.7,270.3-138.3,238.2
	c-135-33.3-146.3-74.6-145.2-134.7C891.2,1346.7,911.7,1280.2,974.8,1231.2z"/>
<path class="st2" d="M929.3,1508.4l-125,46.7c0,0,35,254,38,351s-46,181.2-46,181.2h327c0,0,45-264.2,36-357.2s-71-189.4-74-191.7
	s-78-19.3-78-19.3L929.3,1508.4z"/>
<path class="st16" d="M1149.3,1821.1c0,0,12.6,118,17.8,124s197.2,100,197.2,100l-279,19L1149.3,1821.1z"/>
<path class="st16" d="M1085.3,1533.4c31,0.7,39.4,51.4,46.7,89S1085.3,1533.4,1085.3,1533.4z"/>
<path class="st4" d="M1032.3,1739.1c-17-61-108.3-230.9-108.3-230.9l-119.7,46.9c0,0,27.4,199.1,35.8,312l45.5,220.1h146.7
	C1032.3,2087.2,1049.3,1800.1,1032.3,1739.1z"/>
<polygon class="st16" points="863.4,1980.1 998.3,1949.1 987.3,2064.1 "/>
<path class="st16" d="M930.8,2012.1c-22-29.8-43.5-62.6-22.6-131s23-93,15.7-155s-40.7-161-105.7-164c0,0-2.1,21.7-5.6,56.3
	c10.6,81.8,27.6,221.4,29.6,287.7c3,97-46,181.2-46,181.2l266,5.8C1062.3,2093.1,952.8,2041.9,930.8,2012.1z"/>
<path class="st4" d="M1159.3,1730.1c-9-93-71-189.4-74-191.7c-1.8-1.4-31.2-8.5-53.4-13.7c6.5,15.4,75.2,179.1,72.4,246.5
	c-3,70.8,0.1,315.9,0.1,315.9h18.9C1123.3,2087.3,1168.3,1823.1,1159.3,1730.1z"/>
<linearGradient id="SVGID_1_" gradientUnits="userSpaceOnUse" x1="1984.889" y1="-340.89" x2="1984.889" y2="151.1799" gradientTransform="matrix(1 0 0 1 0 2480)">
	<stop  offset="0" style="stop-color:#9EC8FF"/>
	<stop  offset="1" style="stop-color:#E7F3FE"/>
</linearGradient>
<path class="st17" d="M1821.2,2297.4c-3.4-1.6-6.3-2.9-9-4.4s-4.9-3.5-6.7-6c-1.8-2.5-3.4-5.2-5.4-8.2c-4.2,9.7-11.2,15.7-21.9,18.3
	c2.2,0.9,3.5,1.4,4.9,2c11.9,4.9,18,18.1,14.2,30.3c-2.8,9.5-12.6,19.3-27.5,17.2c-12.8-1.7-20.7-12.9-21.1-23.2
	c-0.6-10.6,5.6-20.4,15.4-24.4c1.2-0.5,2.5-1,4.2-1.6c-3.2-1.4-6.1-2.5-8.8-3.9c-2.7-1.4-5.1-3.3-7-5.7c-1.9-2.5-3.6-5.2-5.5-7.9
	c-1.3,0.6-1.5,2.1-2.2,3.1c-0.9,1.2-1.7,2.5-2.6,3.7c-0.9,1.1-1.8,2.1-2.8,3s-2.1,1.8-3.2,2.5c-1.1,0.8-2.3,1.5-3.5,2.1
	c-1.4,0.6-2.8,1.1-4.2,1.6s-2.6,0.8-4.4,1.4c1.8,0.6,3,0.9,4.3,1.4c12.9,4.3,20,18.2,15.7,31.2c-4.3,12.9-18.2,20-31.2,15.7
	s-20-18.2-15.7-31.2c2.5-7.5,8.4-13.4,16-15.8c1.1-0.4,2.3-0.7,4.2-1.2c-5.7-1.8-10.7-3.4-14.8-7c-3.9-3.5-6.9-7.9-8.6-12.9
	c-1.8,0.3-1.7,1.6-2.1,2.5c-3.9,8.3-10.2,13.7-19.2,16c-8.6,2.2-16.2-0.1-23-5.3c-3.6-2.8-6.5-6.4-8.3-10.6
	c-0.4-0.9-0.3-2.2-1.8-2.5c-5.5,12.9-14.9,19.9-29.3,18.4c-11.6-1.2-19.7-9.1-23.4-22.4c-1.3,0.6-1.3,1.9-1.6,2.9
	c-4,14.1-18.7,22.3-32.7,18.3c-7.4-2.1-13.5-7.3-16.8-14.3c-0.9-2.1-1.6-4.2-2.4-6.4c-1.5,0.4-1.4,1.9-1.7,2.9
	c-1.2,3.8-3.2,7.2-5.9,10.1c-7.6,7.8-16.8,10.2-27,6.8c-10.5-3.5-16.8-11.3-17.7-22.5c-0.9-10.8,3.7-19,12.9-24.8
	c1-0.6,2.1-1.2,3.1-1.8c0.1-0.1,0.1-0.2,0.3-0.6c-1-1.3-2.8-1.5-4.1-2.3c-1.3-0.8-2.9-1.7-4.2-2.6c-1.2-0.9-2.4-1.9-3.4-3
	c-1.2-1.2-2.2-2.5-3.2-3.8s-1.8-2.8-2.9-4.4c-0.5,0.5-1.1,0.7-1.3,1.2c-3.9,6.8-10.3,11.8-17.8,13.9c-0.4,0.2-0.7,0.4-1,0.6
	c0.9,1.3,2.4,1.5,3.7,2.1c5.2,2.2,9.5,6.1,12.2,11c5.1,9.3,4,20.8-2.8,28.9c-6.8,8-18.1,11.2-27.6,7.8
	c-10.5-3.7-17.3-12.9-17.5-23.6c-0.4-10.4,5.7-20.1,15.3-24.1c1.2-0.6,2.4-1.1,4.2-1.9c-4.8-2.1-9.4-3.7-13-6.9
	c-3.6-3.2-5.9-7.2-8.1-11.2c-1.3-0.2-1.3,0.8-1.7,1.3c-0.3,0.5-0.6,1-0.9,1.6c-3.9,7.4-11,12.5-19.2,13.9c-10.7,2-19.7-1.6-26.7-9.9
	c-1.4-1.8-2.6-3.7-3.6-5.8c-0.5-0.9-1-1.8-1.4-2.6c-1.3,0-1.2,1-1.6,1.5s-0.5,1.1-0.8,1.6c-2.4,4.8-6.1,8.7-10.8,11.3
	c-15.3,8.5-34.7,0.6-39.2-16.4c-0.3-1.3-0.6-2.6-1-4c-1.5,0.3-1.2,1.6-1.4,2.5c-2,8.3-6.7,14.5-14.5,18c-9.5,4.3-18.7,3.4-27-3
	c-8.3-6.4-11.4-14.8-9.8-24.9c1.1-8.3,6.3-15.4,13.8-19.1c0.9-0.5,1.9-1,2.8-1.5c0.1-0.1,0.2-0.2,0.3-0.3c-14.6-8-12.8-9-18.4-16.4
	c-1.5,1.1-2,3-3.2,4.2s-2.3,2.8-3.7,4c-1.3,1.2-2.8,2.3-4.3,3.3c-1.6,0.9-3.2,1.7-4.9,2.4c-1.6,0.7-3.3,1.1-5.8,1.9
	c2.2,0.8,3.5,1.3,4.9,1.8c13.2,4.8,20,19.4,15.2,32.6c-1.1,3-2.8,5.8-4.9,8.2c-6.8,7.7-17.6,10.5-27.3,7.1
	c-13.2-4.6-20.2-19-15.6-32.3c2.3-6.5,7.1-11.9,13.4-14.7c1.9-0.8,3.9-1.5,6.1-2.3c-0.8-1.3-2-1-2.9-1.4c-0.9-0.4-2-0.7-3-1.1
	s-2-0.8-2.9-1.3s-1.8-1.1-2.7-1.7c-1-0.7-1.9-1.5-2.8-2.3c-0.8-0.7-1.5-1.5-2.2-2.3s-1.4-1.6-2-2.5s-1.1-1.8-1.6-2.7
	c-0.5-0.9-0.9-1.9-1.4-2.8s-0.8-1.8-1.5-3.2c-1.6,2.1-1.9,4.3-3.1,6c-1.1,1.8-2.4,3.5-3.8,5.1c-1.4,1.5-3.1,2.9-4.8,4.1
	c-1.8,1.2-3.7,2.1-5.7,2.8s-4.1,1.1-6.2,1.3c-2.1,0.2-4.2,0.2-6.3,0c-5.8-0.6-11.2-3.2-15.3-7.3c-4.2-4-6.4-9.1-8.1-15.1
	c-0.6,1.8-1.1,3-1.5,4.3c-4.7,13.5-19.5,20.7-33,16c-13.5-4.7-20.7-19.5-16-33c2.2-6.4,6.8-11.6,12.8-14.7c1.1-0.5,2.1-1.1,3.2-1.7
	c0.1-0.1,0.1-0.3,0.3-0.7c-1.5-1.1-3.4-1.5-5-2.5c-1.6-0.9-3.1-1.9-4.5-3c-1.5-1.3-2.9-2.6-4.2-4.2c-1.1-1.4-2.1-2.9-3-4.5
	c-0.9-1.7-1.7-3.5-2.6-5.5c-1.3,1.2-1.7,2.7-2.3,4c-3.2,6.5-8.7,11.4-15.5,13.8c-11.5,4.4-24.1-1.1-30-9.1
	c-6.5-8.8-7.4-18.3-2.8-28.3c0.3-0.5,0.6-1.1,0.9-1.6c0.3-0.4,0.6-0.7,1-1.3c4.8-0.6,9.8-0.2,14.7-0.3s9.7,0,14.5,0h15.1l4.2,7.5
	l3.6-7.2c1.1-0.1,2-0.3,2.8-0.3c13.9,0,27.8,0,41.8,0c2.5,0,2.5,0,4.8,1.7c2.3-1.7,2.3-1.7,4.8-1.7c1.2,0,2.4,0,3.6,0h1536.8
	c1.2,0,2.4,0,3.6,0c2.5,0,2.5,0,4.8,1.7c2.5-1.6,2.5-1.7,4.4-1.7c14.7,0,29.3,0,44,0c0.5,0,1.1,0.1,1.6,0.2l3.1,5l3.3-5.1h44.7
	c3,3.2,3.6,7.5,4.7,11.4c1.2,0.3,1.1-0.6,1.2-1c0.7-3.6,2.1-7.1,4.2-10.1c3.5-0.8,7.2-0.3,10.8-0.4c3.6-0.1,7,0,10.4,0h21.1
	c5.8,6.4,7.1,18.8,1.8,28c-5.1,8.9-15,14-25.2,13c-11.8-1.3-19.5-8.6-23.6-22.4c-1.2,0.2-1.1,1.3-1.3,2.1c-1.2,5.9-4.3,11.1-8.8,15
	c-2.4,2.1-5.2,3.7-8.1,4.8c-1.8,0.6-3.6,1.2-6.1,2.1c2.1,0.8,3.6,1.3,5.1,1.8c4.9,1.6,9.2,4.8,12.1,9.2c5.9,8.7,6.4,17.9,1.3,27
	c-5.1,8.9-13.1,13.4-23.4,12.8c-10.4-0.6-17.9-6.1-21.9-15.8c-5.2-12.8,0.9-27.4,13.6-32.6c0.3-0.1,0.7-0.3,1-0.4
	c1.5-0.5,3-1.1,4.8-1.8c-8.6-3.9-11.2-1.7-21.9-17.4c-5.8,8.7-4,9.3-18.4,17.7c1,0.6,1.8,1.2,2.7,1.6c8.6,4.4,13.5,11.4,14.6,21
	c1.5,12.7-7.7,25.4-20.2,28c-13.4,2.8-25.7-4-30.5-16.8c-0.6-1.6-1.1-3.1-1.8-5.3c-0.4,0.9-0.8,1.8-1.1,2.8
	c-1.1,4.6-3.4,8.8-6.6,12.3c-10.2,10.9-27.4,11.5-38.3,1.2c-2.1-2-3.9-4.3-5.3-6.8c-0.8-1.4-1.5-2.8-2.5-4.8
	c-2.4,5-4.7,9.3-8.4,12.8c-3.7,3.2-8.2,5.6-12.9,6.9c-0.1,1.1,0.5,1.2,1,1.4c2.9,1,5.6,2.3,8.1,4.1c8.9,6.7,12.5,18.3,8.9,28.8
	c-3.3,10.1-13,17-23.8,17.3c-14.1,0.3-25.8-11-26.1-25.1c-0.2-10.5,6-20,15.6-24.1c1.3-0.5,2.5-1,3.7-1.5c0.2-0.9-0.3-1.2-0.9-1.3
	c-3.2-0.9-6.2-2.3-9-4.2c-3-2.1-5.5-4.7-7.5-7.8c-0.6-0.8-1.2-1.6-2-2.6c-2.6,3.5-4.6,7.2-7.9,9.6c-3.1,2.3-6.5,4.2-9.8,6.3
	c14.8,7.2,18.8,21.6,16.3,31.1c-2.8,10.6-11.7,18.9-22.7,20.2c-9.1,1.1-18-2.5-23.8-9.7c-2.7-3.4-4.6-7.4-5.4-11.7
	c-1.9,0.6-1.6,1.8-1.9,2.8c-2.3,7.1-6.5,12.6-13.1,16.2c-13.2,7.2-29.7,2.3-36.8-10.9c-0.1-0.1-0.1-0.2-0.2-0.3
	c-0.6-1.2-1.2-2.4-1.8-3.5c-2,3.2-3.8,6.3-6,9.2c-2.1,2.8-4.9,5-8.1,6.5c-3.3,1.5-6.8,2.5-10.4,3.8c0.4,0.8,1.4,0.6,2.1,0.8
	c6.7,1.7,12.2,5.1,16.1,10.9c7.6,11.5,4.5,27.1-7.1,34.7c-11.5,7.6-27.1,4.5-34.7-7.1c-0.6-0.9-1.1-1.8-1.5-2.7
	c-6-11.8-1.7-26.2,9.7-32.8c3-1.7,6.4-2.7,9.8-4c-0.5-0.3-1.1-0.6-1.7-0.7c-9-1.5-16.7-7.3-20.6-15.5c-0.4-0.6-0.8-1.1-1.3-1.6
	c-2.5,4.1-4.6,8.1-8.1,11.1s-7.6,4.9-12,6.6c0.5,1.5,1.8,1.7,2.8,2.1c3.4,1.4,6.4,3.5,8.8,6.3c6.9,8,8.9,17.1,4.8,27
	s-12,15.5-22.8,15.9s-18.9-4.7-23.9-14.3c-7.2-13.9,0.3-29.1,12-34.6c1.2-0.6,2.4-1.2,4-1.9c-1.5-1.4-3.2-1.5-4.5-2.3
	s-2.7-1.3-4-2.1c-1.4-0.9-2.7-1.9-4-3c-1.1-1-2.2-2.1-3.1-3.3c-1.1-1.3-2-2.6-3.2-4.2c-1.8,1.3-2.3,3.3-3.6,4.7
	c-1.3,1.5-2.7,2.9-4.1,4.2c-1.4,1.2-2.9,2.2-4.4,3.2c-1.6,1-3.4,1.8-4.9,2.7c0,1.3,0.8,1.5,1.4,1.8c8.9,4.5,13.6,11.9,14.6,21.5
	c0.7,6.7-1.5,13.4-5.9,18.5c-7.1,8.4-16.4,11.5-26.9,8.6c-10.4-2.8-16.8-9.8-19-20.5c-2.1-10.9,3-21.9,12.6-27.4
	c1.1-0.7,2.6-0.8,3.3-2.5c-2.1-1.1-4.3-2.1-6.2-3.4c-1.9-1.2-3.7-2.7-5.3-4.2c-1.7-1.7-3.1-3.6-4.8-5.6c-2.5,2.7-4.7,5.6-7.4,7.9
	s-5.7,3.9-8.8,6.1c0.8,0.6,1.6,1.3,2.4,1.8c5.6,3.4,9.7,8.9,11.5,15.2c3,10.7,0.1,19.9-7.9,27.2c-10.8,9.8-27.4,9-37.2-1.8
	c-2.1-2.3-3.8-5-5-8c-0.7-1.6-1.3-3.3-2-5.2c-1.4,1.3-1.5,2.9-2,4.3c-4.1,10.4-11.6,16.4-22.6,17.8c-10.9,1.2-21.3-4.4-26.5-14
	c-0.8-1.5-1.5-3-2.4-4.8c-0.6,1-1.1,1.7-1.4,2.5c-4.2,9.5-11.5,15-21.6,16.8c-7.7,1.3-14.7-1.1-20.8-5.8c-3.5-2.7-6.3-6.2-8-10.3
	c-0.4-0.9-0.9-1.9-1.5-3.3c-0.5,0.6-0.9,1.3-1.3,2c-3.3,8.5-10.5,14.9-19.3,17.1c-0.9,0.3-1.7,0.6-3,1c1.6,0.5,2.9,0.9,4.1,1.4
	c13,4.3,20,18.3,15.7,31.3c-3,9-10.9,15.6-20.4,16.8c-10.4,1.1-20-3.7-24.8-12.5c-6.7-11.9-2.5-26.9,9.4-33.6
	c1.5-0.9,3.1-1.6,4.8-2.1c1.1-0.4,2.3-0.7,3.7-1.1c-3.3-1.3-6.4-2.3-9.4-3.6c-2.9-1.4-5.4-3.4-7.5-5.8c-2.1-2.6-3.9-5.3-5.8-8
	c-8.3,12.9-10.2,12.8-20.9,17.5c1.7,0.7,3.2,1.4,4.7,2.1c12.5,5.8,18,20.7,12.1,33.2c-5.8,12.5-20.7,18-33.2,12.1
	s-18-20.7-12.1-33.2c2.5-5.4,6.8-9.7,12.1-12.1c1.5-0.7,3-1.3,4.7-2.1c-10-4.6-12.4-4.2-21-17.9c-6.2,10.1-6.6,11.6-20.3,18
	c1.4,0.7,2.6,1.3,3.8,1.8c6.6,2.9,11.6,8.6,13.6,15.6c4.4,13.9-4.7,29-19,31.9c-13.6,2.8-26.9-5.9-29.7-19.5
	c-2.2-10.7,2.8-21.6,12.3-27c1.7-0.9,3.5-1.7,5.7-2.8c-2.1-1.3-4.1-1.7-5.8-2.7c-2-1.1-3.9-2.3-5.7-3.7c-1.6-1.4-3.1-2.9-4.4-4.6
	c-1.3-1.6-2.4-3.4-3.4-5c-1-0.3-1.3,0.3-1.6,0.8c-3.6,6.6-9.4,11.6-16.5,14.1c-0.6,0.2-1.1,0.5-2,0.9c1.5,0.8,2.7,1.4,3.9,2
	c5.3,2.4,9.5,6.6,12,11.9c6,12.6,0.7,27.6-11.9,33.6s-27.6,0.7-33.6-11.9c-5.9-12.3-0.9-27,11.2-33.2c1.4-0.7,3.2-1,4.5-2.5
	c-4.4-1.8-8.5-3.6-11.9-6.7c-3.3-2.9-5.4-6.8-8-10.7c-2.4,4.1-4.6,7.9-8,10.8s-7.3,4.8-11.5,6.4c0.5,1.8,2.2,1.7,3.2,2.2
	c5.7,2.6,10.2,7.3,12.6,13.1c5.3,12.9-0.8,27.7-13.7,33.1c-1.4,0.6-2.9,1.1-4.5,1.4c-13.2,2.8-29.6-6.1-30.2-24
	c-0.4-10.2,4.4-18,13.5-23c1.4-0.8,2.9-1.4,4.8-2.3c-2.8-1.2-5.6-2.6-8.3-4.2c-2.4-1.6-4.6-3.5-6.5-5.6c-1.9-2.4-3.7-5-5.3-7.6
	c-1.5,1.1-1.7,3-2.8,4.3s-2.1,3-3.4,4.3c-1.2,1.3-2.6,2.5-4.1,3.6c-1.5,1-3,2-4.7,2.8c-1.6,0.8-3.2,1.4-5.3,2.4l4,2
	c8.4,4.1,13.2,10.9,14.3,20.2c1.3,12.6-6.9,24.2-19.2,27.1c-14.3,3.3-29.9-6-30.9-23.1c-0.6-10.2,3.8-18.1,12.8-23.4
	c1.5-0.9,3.2-1.6,4.8-2.4c-0.2-1.3-1.3-1.1-2-1.5c-0.9-0.5-1.9-0.8-2.9-1.3c-0.8-0.4-1.6-0.8-2.4-1.3s-1.5-1-2.2-1.6
	c-0.8-0.6-1.6-1.3-2.4-2s-1.3-1.3-1.9-1.9c-0.6-0.7-1.2-1.4-1.7-2.1c-0.6-0.9-1.1-1.8-1.7-2.7s-1-1.5-1.6-2.5
	c-1.6,1.2-2.2,2.9-3.2,4.3c-1,1.3-2,2.6-3.2,3.8c-1.3,1.3-2.7,2.4-4.2,3.5c-1.4,0.9-2.8,1.8-4.3,2.5c-1.6,0.8-3.3,1.4-5,2.1
	c0.3,1.4,1.5,1.3,2.4,1.7c5.4,2.1,9.9,6,12.7,11.1c4.6,8.6,4.5,17.2-0.6,25.5s-12.9,12.3-22.6,11.8c-13.7-0.6-24.3-12.2-23.7-25.9
	c0.1-1.4,0.2-2.8,0.5-4.1c1.4-7.6,6.4-14,13.4-17.3C1817.6,2298.9,1819.2,2298.3,1821.2,2297.4z M2695.6,2136.4
	c6,5.6,8.8,3.8,15.3,20.8c0.7-2,1.3-3.9,2-5.6c1.4-3.5,3.6-6.7,6.3-9.3c1.3-1.2,2.8-2.3,4.3-3.3c1.5-1.1,3.6-1.4,4.9-2.9
	c-3.4-2.2-6.8-3.9-9.6-6.3c-2.8-2.4-5-5.5-7.6-8.5c-1.4,2-2.6,4.1-4.1,5.9c-1.5,1.9-3.3,3.6-5.1,5.1
	C2700,2133.8,2697.9,2134.9,2695.6,2136.4L2695.6,2136.4z M1139.3,2136c5.1,2,9.1,4.4,12.3,7.9s4.9,8.1,6.5,12.8
	c0.2-0.3,0.4-0.4,0.4-0.5c0.2-0.6,0.4-1.1,0.6-1.7c1.9-7.3,6.7-13.4,13.3-16.9c0.4-0.3,0.8-0.7,1.1-1.1c-3.1-2.3-6.3-4.1-8.8-6.6
	s-4.8-5.6-7.1-8.5C1149.8,2130.9,1149.8,2130.9,1139.3,2136L1139.3,2136z M1318.5,2212.4c3.9-11.4,2.9-12.1,15.1-22
	c-2.9-2.1-6.1-3.9-8.7-6.3c-2.6-2.4-4.7-5.3-6.9-7.9c-2.6,2.7-4.9,5.7-7.7,7.9c-2.8,2.2-6.3,3.9-9.6,5.9c2.2,1.1,4.3,2.4,6.3,3.7
	c2,1.4,3.7,3.1,5.3,4.9c1.6,2,2.9,4.2,3.9,6.6C1317.1,2207.6,1317.9,2210,1318.5,2212.4L1318.5,2212.4z M1532.5,2230.8
	c-1.4,1.6-2.4,3.1-3.7,4.4c-1.1,1.2-2.3,2.3-3.7,3.4c-1.4,1.1-3,1.9-4.5,3s-3.3,1.2-4.8,2.8c1.2,0.7,2.1,1.1,3,1.7
	c2.1,1.4,4.2,2.9,6.1,4.6c3,2.8,5.2,6.3,6.4,10.2c0.4,1.2,0.3,2.8,1.9,3.4c0.2-0.4,0.4-0.8,0.6-1.3c1.8-7.4,6.7-13.7,13.5-17.4
	c0.4-0.2,0.7-0.8,1.1-1.2c-3-2-5.9-3.6-8.4-5.7C1537.5,2236.6,1535.1,2233.7,1532.5,2230.8L1532.5,2230.8z M2549.8,2210.3
	c6.5-16,9.5-15,17.2-20.3c-3-1.8-6.1-3.3-8.8-5.4c-2.7-2.1-5.1-5-7.8-7.8c-1.4,1.8-2.7,3.7-4.2,5.3c-1.7,1.7-3.5,3.4-5.4,4.8
	c-1.7,1.3-3.7,2.4-5.6,3.7C2541.7,2196.1,2544.6,2196.2,2549.8,2210.3L2549.8,2210.3z M1601,2244.8c-2.8-1.8-5.6-3.7-8.2-5.8
	c-2.3-2.2-4.6-4.6-6.7-7c-2.2,2.4-4.5,4.7-6.9,6.8c-2.5,2.1-5.4,3.7-8.4,5.6c0.4,0.4,0.9,0.9,1.4,1.2c6.7,3.6,11.6,10,13.3,17.4
	c0.3,0.7,0.7,1.3,1.1,1.9c0.8-2.3,1.3-4.4,2.2-6.3c0.8-1.8,1.7-3.5,2.8-5.1c1.2-1.7,2.7-3.3,4.2-4.7
	C1597.3,2247.5,1599.1,2246.3,1601,2244.8z M2282.3,2232.5c-0.5,0.3-0.9,0.7-1.3,1.1c-3.2,4.3-7.3,7.8-12,10.2
	c-0.4,0.2-0.7,0.8-1,1.2c8.5,6.6,9.4,7.9,13.3,18.1c0.1,0.4,0.4,0.8,0.9,1.8c1.4-4.8,2.9-8.6,5.3-11.9c2.4-3.3,6.1-5.7,9.7-8.3
	C2291.5,2241.6,2286.4,2237.5,2282.3,2232.5L2282.3,2232.5z M1211.6,2153.8c3.6-7.2,2.6-7.8,12.4-16.7c-1.7-1.3-3.4-2.4-5-3.8
	s-2.8-2.7-4.3-4.1c-1.5-1.4-2.2-3.5-4-4.8c-0.6,0.7-1,1.1-1.4,1.6c-2.9,3.9-6.7,7-11,9.2c-0.6,0.3-1.5,0.5-1.3,1.5
	C1203.9,2141.8,1205.2,2141.5,1211.6,2153.8L1211.6,2153.8z M1639.5,2261.3c0.7-0.7,1.1-1,1.3-1.4c2.1-5.5,5.8-10.3,10.7-13.7
	c0.4-0.4,0.7-0.8,1-1.3c-2.4-1.7-4.8-3.1-6.8-4.8c-2-1.7-4-3.9-5.8-5.6c-1.6,1.4-2.9,2.6-4.3,3.7s-3,2.4-4.6,3.6
	c-1.4,1-2.9,1.9-4.5,2.9c2.8,2.5,5.4,4.7,7.8,7.1C1636.7,2254.2,1638,2257.5,1639.5,2261.3L1639.5,2261.3z M1371.5,2179.8
	c-1.5,1.5-2.8,2.9-4.2,4.2s-2.8,2.3-4.2,3.3s-3.4,1.7-5,3.3c1.7,1.2,3.2,2.2,4.6,3.3c1.3,1,2.5,2.2,3.6,3.4c1.2,1.4,2.2,2.8,3.2,4.4
	c0.9,1.5,1.7,3,2.6,4.9c1.9-3.2,3.4-6.2,5.4-8.7s4.6-4.7,7.1-7c-2.2-1.6-4.6-3.1-6.8-4.9S1373.6,2182,1371.5,2179.8L1371.5,2179.8z
	 M2671.4,2136.4c-5.3-2.5-9.8-6.4-13.3-11.1c-1.5,1.8-2.6,3.3-4,4.7c-1.2,1.3-2.5,2.6-3.9,3.8c-1.5,1.3-3,2.4-4.6,3.5
	c2.3,2.3,4.5,4.6,6.6,7.1c1.7,2.6,3.3,5.3,4.8,8.2C2664.4,2139.6,2665.3,2141.4,2671.4,2136.4L2671.4,2136.4z M2229,2234.6
	c-2.1,2.1-4,4-6.1,5.8c-2.1,1.8-4.3,3.1-6.5,4.7c2.5,2.6,5.1,4.7,7.1,7.3c1.8,2.6,3.5,5.4,5,8.2c1.9-3.1,3.5-6.2,5.7-8.8
	s4.9-4.7,7.5-7c-2.4-1.6-4.8-3-6.9-4.7C2232.7,2238.4,2230.9,2236.4,2229,2234.6z M2484.6,2191.1c1.8,1.6,3.4,2.9,4.8,4.4
	c1.5,1.7,2.9,3.4,4.1,5.3c1.1,1.7,1.9,3.5,3.1,5.6c0.9-1.9,1.6-3.4,2.4-4.8c0.9-1.5,2-3,3.1-4.4c1.1-1.3,2.4-2.3,3.6-3.4
	c1.2-1.1,3.2-1.6,3.9-3.2c-0.4-0.4-0.6-0.8-0.8-0.9c-4-2-7.7-4.8-10.6-8.3c-0.5-0.4-1-0.7-1.6-0.9
	C2493.4,2184.9,2489.2,2188.4,2484.6,2191.1L2484.6,2191.1z M1693.4,2261.3c1.2-2.4,1.9-4.4,3-6.1c1.2-1.9,2.6-3.7,4.1-5.4
	c1.4-1.6,3-2.9,4.7-4.4c-2.3-1.7-4.4-3.1-6.3-4.7c-1.9-1.6-3.8-3.7-5.8-5.6c-2,1.9-3.8,3.8-5.8,5.4c-2,1.6-4.3,3.1-6.5,4.7
	C1690.4,2253.7,1688.5,2252.7,1693.4,2261.3L1693.4,2261.3z M2187.5,2245.2c-2.3-1.6-4.5-3-6.4-4.6c-1.9-1.6-3.9-3.6-5.9-5.5
	c-2,2-3.7,3.9-5.7,5.6s-4,3-6,4.6c2.4,2.5,4.8,4.6,6.7,7.1c1.9,2.8,3.6,5.7,5.1,8.6c1.1-2.2,2-4.3,3.2-6.2c1.1-1.8,2.4-3.5,3.9-5
	C2183.9,2248.2,2185.6,2246.9,2187.5,2245.2L2187.5,2245.2z M1413.3,2190.9c2.3,2,4.5,4.1,6.6,6.3c2,2.6,3.8,5.2,5.5,8
	c1.5-2.5,2.7-4.9,4.3-7c1.6-2.1,3.8-4.3,5.8-6.6c-1.9-1.5-3.8-2.9-5.6-4.5s-3.4-3.3-5.3-5.2c-1.9,1.7-3.6,3.4-5.5,4.9
	S1415.3,2189.5,1413.3,2190.9L1413.3,2190.9z M2443.4,2182.6l-10.3,9.1c1.4,1.4,2.8,2.6,3.9,4s2.2,2.9,3.3,4.3s1.3,3.3,3.3,4.8
	c2.3-5.6,6.3-9.7,10.8-13.4L2443.4,2182.6z M1789.1,2245.6c4.9,3.5,8.6,8.3,10.9,13.8c1.7-2.7,2.9-5.1,4.6-7.2
	c1.7-2.1,3.8-4.2,5.8-6.5c-1.9-1.5-3.6-2.9-5.4-4.2c-1.8-1.3-3.1-3.6-5.3-4.7c-1.8,1.6-3.3,3.1-4.9,4.4S1791.3,2243.9,1789.1,2245.6
	L1789.1,2245.6z M1746.8,2236.4c-2.1,1.8-3.7,3.4-5.4,4.8c-1.7,1.4-3.5,2.7-5.2,3.8c2,2.2,4,4.1,5.7,6.2c1.7,2.1,3.2,4.7,5,7.3
	c1.6-2.4,2.9-4.8,4.5-6.8s3.9-4.2,6.1-6.4c-1.9-1.4-3.7-2.7-5.4-4.1C1750.4,2239.8,1748.6,2238.2,1746.8,2236.4L1746.8,2236.4z
	 M2121.9,2236.9l-10.4,8.7c1.9,2,3.9,3.8,5.5,5.9s3,4.5,4.7,7.1c1.4-1.6,1.9-3.6,3.2-5c1.3-1.4,2.3-2.8,3.5-4.2s3.2-2.2,4-4
	L2121.9,2236.9z M2067.9,2259.2c1.8-2.8,3.3-5.2,4.8-7.6c1.5-2.4,4.2-3.8,5.7-6.3c-1.9-1.4-3.6-2.6-5.2-3.9s-3.3-2.9-5.1-4.4
	c-1.7,1.6-3.3,3-4.8,4.5s-3.8,2.3-5.3,4.4C2062.4,2249.5,2065.8,2254.1,2067.9,2259.2L2067.9,2259.2z M1907.3,2258.3
	c1.5-2.3,2.7-4.6,4.2-6.6s3.6-4,5.6-6.2c-1.8-1.4-3.5-2.7-5.1-4c-1.6-1.3-3.1-2.8-4.8-4.3c-1.7,1.5-3.2,3-4.8,4.3
	c-1.6,1.3-3.3,2.6-5.1,4c1.9,2.1,3.8,3.8,5.3,5.8S1905.7,2255.9,1907.3,2258.3L1907.3,2258.3z M1971,2245.6l-10.1-8.3
	c-1.8,1.6-3.4,2.9-4.8,4.4s-3.7,2-4.7,3.9c1.9,2.1,3.8,3.9,5.3,5.9s2.8,4.2,4.4,6.7c1.5-2.3,2.7-4.5,4.3-6.5
	S1969,2247.8,1971,2245.6L1971,2245.6z M1863.3,2245.7l-9.5-7.8l-9.7,7.9c1.3,1.3,2.5,2.4,3.6,3.7c1.1,1.3,2.1,2.6,3.1,3.9
	s1.4,2.9,3.1,4C1856.4,2252.9,1859.6,2249,1863.3,2245.7L1863.3,2245.7z M1254.1,2137.3c1.4,1.2,2.8,2.3,4.1,3.6
	c1.3,1.3,2.2,2.5,3.3,3.7c1.1,1.2,1.7,3.2,3.1,4.1l8.6-11c-1.4-1.3-2.9-2.7-4.6-3.9c-1.7-1.2-2.6-3.7-4.8-4.4L1254.1,2137.3z
	 M2014.5,2257.6c1.8-2.6,3.1-4.5,4.4-6.5s3.8-3.4,5.1-5.7c-1.7-1.3-3.2-2.5-4.8-3.6s-2.7-3.2-4.7-3.8l-9.3,7.7
	C2008.7,2249.2,2012.1,2252.6,2014.5,2257.6L2014.5,2257.6z M2604.1,2148.4c2.2-4.6,5.6-7.7,9.3-11c-1.8-1.3-3.2-2.6-4.8-3.7
	c-1.6-1.1-2.6-2.9-4.6-3.7c-2.5,3.1-5.9,5.3-8.3,8L2604.1,2148.4z M1479.1,2202.2l7.9-10.4l-8.4-7.3l-8.4,6.9L1479.1,2202.2z
	 M2390.2,2185.1l-7.8,6.8l7.4,9.4c1.4-1.8,2.6-3.5,3.9-5.1c1.3-1.6,3.4-2.8,4.4-4.9L2390.2,2185.1z M1318,2146.5l5.4-7.4
	c-2.4-2.1-4.3-4.7-7.2-6.2c-1.8,2-4.3,2.9-5.6,5.1L1318,2146.5z M2342.9,2192.1c-1.8-2-3.9-3.7-6.2-5c-1.2,1.1-2.3,1.9-3.2,2.8
	c-0.9,0.9-2.4,1.3-2.5,3c1.3,1.8,2.7,3.6,4.1,5.3c0.5,0.5,1,1,1.6,1.4L2342.9,2192.1z M2551.4,2133.1c-2.2,2-4.5,3.7-6.1,6.1
	c1,1.2,1.8,2.3,2.6,3.4c0.8,1.1,1.5,2.1,2.5,3.4c1.3-1.5,2.4-2.8,3.3-4.1c0.9-1.3,2.7-2.3,3.6-4.1L2551.4,2133.1z M1526.1,2192
	l6.4,7.5c2-2.2,3.8-4.5,5.5-7c-2.2-1.8-3.9-3.9-6.5-5L1526.1,2192z M1586.7,2188c-2.1,1.7-4,2.8-5.4,5c1.7,1.7,2.8,3.8,4.9,5.4
	c1.7-2.3,3.7-4,4.9-6.7L1586.7,2188z M2282,2197.9c1.9-1.5,3.5-3.4,4.7-5.5c-1.4-1.6-3.1-3-5-4.1c-1.8,0.9-3.3,2.2-4.4,3.8
	L2282,2197.9z M1639.3,2196.3c1.8-1.5,3.2-3.3,4.3-5.4l-1.9-1.2l-2-1.2l-3.9,3.5L1639.3,2196.3z M1689.7,2191.6
	c0.9,1.5,1.8,2.8,3.5,3.5c1.4-1.2,2.7-2.7,3.6-4.4l-3.2-2.6C1692,2189,1690.7,2190.2,1689.7,2191.6L1689.7,2191.6z M1372.2,2135.6
	l-4.1,3.5l3.1,3.5c1.8-1.1,3.2-2.8,3.9-4.7L1372.2,2135.6z M2228.4,2188.5c-1.1,1-1.9,1.6-2.7,2.3c-0.2,0.2-0.2,0.6-0.3,1.2
	c1.1,1,1.9,2.7,3.5,3.7c1.5-0.9,2.7-2.3,3.2-4L2228.4,2188.5z M2178.4,2191.6c-0.7-1.5-1.9-2.6-3.4-3.3c-1.5,0.4-2.7,1.6-3.2,3
	l3.2,3.7C2176.8,2194.4,2177.4,2193,2178.4,2191.6L2178.4,2191.6z M2500,2139l-3.5-3c-1.4,0-2.5,1.1-2.7,2.4c1,1.1,1.7,2.7,3.4,3.5
	L2500,2139z M1422.6,2138.5l2.1,2.3l3.4-4l-1.8-1.6C1424.6,2136,1423.4,2136.8,1422.6,2138.5L1422.6,2138.5z M1800.9,2188
	c-1.9,1.2-3.3,1.7-3.4,3.5l2.2,1.9c1.6-0.6,2.7-2,2.8-3.7L1800.9,2188z M1746.4,2193.9c1.6-0.8,2.6-1.6,2.8-3.3l-2.4-1.9l-2.7,2.5
	L1746.4,2193.9z M2070.9,2190.7l-2.7-2.4c-1.2,0.6-2.3,1.1-2.2,2.9l2.5,2.3L2070.9,2190.7z M2124.1,2191.3c-2.4-3-2.6-3.1-4.7-0.3
	l2.5,2.7L2124.1,2191.3z M2443.5,2140.3c2.1-2.4,2.1-2.9,0.4-4.3c-1.1-0.9-1.5-0.8-3.1,1.3L2443.5,2140.3z M1907.5,2188.3
	c-1.3,0.5-2.4,1.1-2.3,2.8l2.3,2l2.4-2.6L1907.5,2188.3z M1958.6,2190.6l2.2,2.3c2.5-1.8,2.8-2.3,2-3.3
	C1961.7,2188.1,1961,2188.3,1958.6,2190.6L1958.6,2190.6z M1853.9,2188.5c-0.7,1-1.5,1.5-1.6,2.2c-0.1,0.4,0.7,1.2,1.3,1.5
	s2-0.7,1.8-1.4C1855.2,2190.1,1854.6,2189.4,1853.9,2188.5L1853.9,2188.5z M2015.1,2192.2c0.5-0.5,0.8-1.1,1.1-1.8
	c0.2-0.7-1.2-1.7-1.8-1.4c-0.6,0.3-1.1,0.9-1.3,1.6C2012.9,2191.3,2013.9,2192.2,2015.1,2192.2L2015.1,2192.2z M1479.8,2135.6
	c-0.2,0-0.4,0.1-0.6,0.1c-0.7,0.4-1.2,0.8-0.9,1.7c0.1,0.1,0.2,0.2,0.3,0.2c0.9,0,1.3-0.5,1.4-1.3
	C1480,2136.2,1479.9,2136,1479.8,2135.6L1479.8,2135.6z M1103.2,2161.4c0-12.3-8.4-24.5-24.9-25.4c-13.4-0.7-25.1,11.5-25.1,25.1
	c-0.1,13.8,11.1,25.1,24.9,25.1C1091.9,2186.3,1103.2,2175.2,1103.2,2161.4z M1423.7,2269.5c0.2-13.8-10.8-25.1-24.5-25.3
	c-13.8-0.2-25.1,10.8-25.3,24.5c-0.2,13.8,10.8,25.1,24.5,25.3c0.1,0,0.2,0,0.2,0C1412.4,2294.1,1423.6,2283.1,1423.7,2269.5
	L1423.7,2269.5z M2683.2,2190.4c-13.7,0-24.8,11-24.8,24.7c0,13.7,11,24.8,24.7,24.8s24.8-11,24.8-24.7
	C2707.9,2201.5,2696.9,2190.4,2683.2,2190.4z M1185.1,2190.6c-13.6-0.1-24.6,10.9-24.6,24.4c-0.1,13.6,10.9,24.6,24.4,24.6
	c13.6,0.1,24.6-10.9,24.6-24.4v-0.1C1209.6,2201.6,1198.7,2190.6,1185.1,2190.6C1185.2,2190.6,1185.2,2190.6,1185.1,2190.6
	L1185.1,2190.6z M2202,2297.6c-13.5-0.1-24.6,10.8-24.6,24.4c-0.1,13.5,10.8,24.6,24.4,24.6c13.5,0.1,24.6-10.8,24.6-24.4l0,0
	C2226.4,2308.7,2215.6,2297.7,2202,2297.6L2202,2297.6L2202,2297.6z M2522.8,2244.6c-13.5-0.2-24.6,10.7-24.8,24.2
	c-0.2,13.5,10.7,24.6,24.2,24.8s24.6-10.7,24.8-24.2l0,0c0.3-13.4-10.4-24.5-23.8-24.8C2523.1,2244.6,2522.9,2244.6,2522.8,2244.6
	L2522.8,2244.6z M1642.1,2322.3c0,13.5,11,24.4,24.5,24.3s24.4-11,24.3-24.5c-0.1-15.2-12.1-24.5-24.5-24.4
	S1642,2307.1,1642.1,2322.3L1642.1,2322.3z M1346.2,2244.8c-13.4-0.1-24.4,10.7-24.5,24.2c-0.1,13.4,10.7,24.4,24.2,24.5
	c13.5,0,24-10.4,24.4-24.2C1370.1,2255.7,1359.9,2245,1346.2,2244.8L1346.2,2244.8z M2819.8,2161.3c0,13.4,10.8,24.2,24.2,24.3
	c13.4,0,24.2-10.8,24.3-24.2l0,0c0-13.3-9.9-23.9-24.2-24.3C2830.5,2137.3,2819.9,2147.4,2819.8,2161.3L2819.8,2161.3z
	 M2278.9,2322.3c0.1-13.3-10.5-24.2-23.8-24.3s-24.2,10.5-24.3,23.8s10.5,24.2,23.8,24.3c0.1,0,0.2,0,0.2,0
	c13.2,0.1,24-10.5,24.2-23.7C2279,2322.4,2279,2322.3,2278.9,2322.3L2278.9,2322.3z M1637.6,2322.4c0.2-13.3-10.4-24.1-23.7-24.3
	c-13.3-0.2-24.1,10.4-24.3,23.7c-0.2,13.3,10.4,24.1,23.7,24.3h0.1C1626.6,2346.2,1637.4,2335.6,1637.6,2322.4L1637.6,2322.4z
	 M1024.1,2137.4c-13.2,0.1-23.8,10.8-23.8,24c0.1,13.2,10.8,23.8,24,23.8c13.2-0.1,23.8-10.8,23.8-24l0,0
	c0-13.1-10.5-23.7-23.6-23.7C1024.4,2137.4,1024.3,2137.4,1024.1,2137.4L1024.1,2137.4z M2737.3,2191.3c-13.1,0-23.8,10.7-23.8,23.8
	s10.7,23.8,23.8,23.8s23.7-10.5,23.8-23.6c0.1-13.1-10.3-23.8-23.4-24C2737.6,2191.3,2737.5,2191.3,2737.3,2191.3L2737.3,2191.3z
	 M1007.2,2127.6c9.9,8.8,24.9,8.6,34.7-0.3c9.7-8.9,10.9-24.4,3.4-33.6c-3.4-0.5-35.6-0.6-41.8-0.2
	C995.6,2104.1,997.3,2118.9,1007.2,2127.6L1007.2,2127.6z M2332.5,2322.3c0.2-13.1-10.3-23.8-23.4-24c-0.1,0-0.3,0-0.4,0
	c-13.1,0-23.7,10.6-23.8,23.7s10.6,23.7,23.7,23.8C2321.7,2345.8,2332.4,2335.4,2332.5,2322.3L2332.5,2322.3z M2576.7,2245.4
	c-13.1-0.1-23.8,10.3-24,23.4s10.3,23.8,23.4,24s23.8-10.3,24-23.4v-0.1C2600.2,2256.2,2589.8,2245.6,2576.7,2245.4L2576.7,2245.4z
	 M1559.7,2345.7c13.1,0,23.6-10.7,23.6-23.7c0-13.1-10.7-23.6-23.7-23.6s-23.6,10.7-23.6,23.7
	C1536,2335.2,1546.7,2345.7,1559.7,2345.7L1559.7,2345.7z M1155.8,2215.1c0-13.1-10.6-23.6-23.7-23.6c-13,0-23.6,10.6-23.6,23.6
	c0,13.1,10.6,23.6,23.7,23.6C1145.2,2238.7,1155.8,2228.2,1155.8,2215.1z M1291.9,2292.6c13,0,23.6-10.5,23.6-23.5
	s-10.5-23.6-23.5-23.6s-23.5,10.4-23.6,23.3C1268.3,2281.8,1278.7,2292.5,1291.9,2292.6L1291.9,2292.6L1291.9,2292.6z
	 M2362.4,2298.8c-13.8,0.2-22.9,10.9-23.1,23.2c0,12.9,10.4,23.4,23.2,23.4h0.1c12.7-0.1,23-9.8,23.3-23.4
	C2385.6,2308.3,2375.4,2298.6,2362.4,2298.8L2362.4,2298.8z M1506.9,2298.9c-12.7-0.3-23.2,9.7-23.5,22.4c0,0.2,0,0.5,0,0.7
	c0,12.8,10.4,23.2,23.2,23.2c12.8,0,23.2-10.4,23.2-23.2C1529.9,2311.1,1521.9,2299.1,1506.9,2298.9L1506.9,2298.9z M2920.3,2162.2
	c0.5-12.8-9.5-23.6-22.3-24.1c-0.1,0-0.2,0-0.2,0c-12.8-0.4-23.5,9.7-23.8,22.5c-0.4,12.8,9.7,23.4,22.4,23.8
	C2910.6,2184.9,2920,2173.1,2920.3,2162.2L2920.3,2162.2z M2879.9,2126.5c9.5,8.9,24.2,9.1,33.9,0.3c9.6-8.6,11-23,3.2-33.2
	c-3.8-0.5-36-0.5-39.8,0C2870.6,2100.8,2869.2,2116.3,2879.9,2126.5L2879.9,2126.5z M2629.4,2246.1c-12.7-0.1-23.1,10.2-23.1,22.9
	c-0.1,12.7,10.2,23.1,22.9,23.1c12.7,0.1,23.1-10.2,23.1-22.9l0,0c0.1-12.6-10-23-22.6-23.1
	C2629.6,2246.1,2629.6,2246.1,2629.4,2246.1L2629.4,2246.1z M954.3,2126.3c9.7,9.2,24.9,9,34.4-0.4c9.5-9.2,9.4-24.8,1.9-32.5H952
	C944,2102.9,945.1,2117.6,954.3,2126.3z M2813.2,2214.9c-0.8-12.7-11.7-22.3-24.4-21.6c-11.7,0.7-21,10.1-21.6,21.8
	c0,12.6,10.2,22.9,22.8,22.9c0.1,0,0.2,0,0.3,0C2803,2238.2,2813.3,2227.4,2813.2,2214.9z M971.4,2138.4c-12.7,0-22.9,10.3-22.9,23
	c0.2,12.5,10.3,22.6,22.8,22.8c12.2,0,23.3-10.5,22.9-23.1C994.4,2149.1,984.1,2138.4,971.4,2138.4z M1239,2246.3
	c-12.6,0-22.8,10.2-22.8,22.8s10.2,22.8,22.8,22.8c12.6,0,22.8-10.2,22.8-22.8l0,0c0-12.5-10.1-22.8-22.6-22.8
	C1239.1,2246.3,1239.1,2246.3,1239,2246.3z M2415.7,2299.4c-12.4-0.1-22.6,9.9-22.8,22.3c-0.1,12.6,9.9,22.9,22.5,23.2
	c12.5,0.2,22.8-9.9,23-22.4c0-0.1,0-0.1,0-0.2c0.2-12.4-9.6-22.6-22-22.8C2416.1,2299.4,2415.9,2299.4,2415.7,2299.4L2415.7,2299.4z
	 M1452.7,2344.7c12.5,0,22.7-10.1,22.7-22.6s-10.1-22.7-22.6-22.7c-12.4,0-22.5,9.9-22.7,22.3c-0.3,12.4,9.6,22.7,22.1,23
	C1452.3,2344.7,1452.5,2344.7,1452.7,2344.7L1452.7,2344.7z M1100.9,2215.3c0.1-12.5-10-22.8-22.6-22.8c-12.5-0.1-22.8,10-22.8,22.6
	c-0.1,12.5,10,22.7,22.5,22.8c12.5,0.2,22.8-9.8,23-22.3C1100.9,2215.4,1100.9,2215.3,1100.9,2215.3L1100.9,2215.3z M2929.7,2119.1
	c4.6,8.6,12,13.3,21.7,13.1c18.7-0.4,29.2-20,20.3-35.9c-1-2.1-3.2-3.3-5.4-3.1c-10.4,0.1-20.8,0.1-31.2,0.1c-0.8,0-1.5,0.1-2.4,0.1
	C2926.8,2099.7,2925.3,2110.8,2929.7,2119.1L2929.7,2119.1z M2469.4,2299.9c-12.2,0.1-22.1,10.1-21.9,22.3
	c0.1,12.2,10.1,22.1,22.3,21.9c12.2-0.1,22-10.1,21.9-22.3c0-12.1-9.8-22-21.9-22C2469.7,2299.9,2469.6,2299.9,2469.4,2299.9
	L2469.4,2299.9z M2683.4,2247c-12.2-0.1-22.2,9.7-22.3,21.9s9.7,22.2,21.9,22.3s22.2-9.7,22.3-21.9c0-0.1,0-0.2,0-0.3
	C2705.2,2256.9,2695.5,2247.2,2683.4,2247L2683.4,2247z M2929,2161.1c0.1,12.1,9.7,21.9,21.8,22.2c11.1,0.1,22.4-9.1,22.2-22.2
	c0-12.2-9.8-22-22-22S2929,2149,2929,2161.1L2929,2161.1z M900.8,2125c9.2,9.1,24,9.1,33.2-0.1c8.5-8.6,9.1-22.3,1.4-31.6h-35.9
	C891.4,2102.6,892,2116.5,900.8,2125z M1376.8,2321.8c-0.1,12.2,9.7,22.1,21.8,22.2s22.1-9.7,22.2-21.8l0,0
	c0-12.8-10.6-22.3-21.8-22c-12-0.2-21.9,9.4-22.1,21.5C1376.9,2321.6,1376.9,2321.7,1376.8,2321.8L1376.8,2321.8z M1185.2,2247.1
	c-12.1,0.2-21.8,10.2-21.6,22.3c0.2,11.8,9.6,21.3,21.4,21.6c12.4,0.1,22.2-10.2,22-21.8c0.2-12-9.4-21.9-21.4-22
	C1185.5,2247.1,1185.4,2247.1,1185.2,2247.1L1185.2,2247.1z M2866,2215.2c0.1-12.1-9.7-22-21.8-22c-12.1-0.1-22,9.7-22,21.8
	c-0.1,12.1,9.7,22,21.8,22l0,0c12.1,0.1,21.9-9.6,22-21.7C2866,2215.3,2866,2215.3,2866,2215.2z M2010.1,2376
	c0.3-12.1-9.2-22.1-21.3-22.4c-12.1-0.3-22.1,9.2-22.4,21.3c0,0.3,0,0.6,0,0.9c0.2,12.1,10.1,21.7,22.2,21.5
	C2000.3,2397.1,2009.8,2387.7,2010.1,2376z M1956.1,2376.1c0.3-12.1-9.2-22.2-21.3-22.5s-22.2,9.2-22.5,21.3c0,0.3,0,0.6,0,0.8
	c0.1,12.1,10,21.8,22.1,21.7C1946.2,2397.2,1955.7,2387.9,1956.1,2376.1z M2062.9,2375.6c-0.1-12.1-9.9-21.8-22-21.7
	s-21.8,9.9-21.7,22s9.9,21.8,22,21.7C2053.3,2397.6,2063,2387.7,2062.9,2375.6z M1902.1,2375.9c0-12.1-9.9-21.9-22-21.8
	c-11.9,0-21.6,9.7-21.6,21.7c-0.3,11.8,9,21.7,20.8,22c0.3,0,0.6,0,0.9,0c12,0.2,21.8-9.4,22-21.3
	C1902.2,2376.2,1902.2,2376.1,1902.1,2375.9L1902.1,2375.9z M917.8,2139.5c-12-0.3-22,9.3-22.3,21.3s9.3,22,21.3,22.3
	s22-9.3,22.3-21.3c0-0.1,0-0.2,0-0.3C939.3,2149.5,929.8,2139.7,917.8,2139.5z M1827.5,2354.1c-12.1,0-21.9,9.8-21.9,21.9
	c0,11.9,9.7,21.6,21.6,21.6c0.2,0,0.3,0,0.5,0c11.8,0,21.4-9.6,21.4-21.4c0-0.1,0-0.2,0-0.4
	C1849,2363.9,1839.4,2354.2,1827.5,2354.1z M1024.6,2193.4c-12-0.2-21.9,9.4-22,21.4c-0.2,12,9.4,21.9,21.4,22
	c12,0.2,21.9-9.4,22-21.4v-0.1C1046.1,2203.4,1036.5,2193.6,1024.6,2193.4z M2095,2354.2c-12,0-21.7,9.7-21.8,21.7
	s9.7,21.7,21.7,21.8s21.7-9.7,21.8-21.7v-0.1C2116.6,2363.9,2107,2354.2,2095,2354.2z M1795,2376.1c0.1-12-9.5-21.8-21.4-21.9
	c-12-0.1-21.8,9.5-21.9,21.4c-0.1,12,9.5,21.8,21.4,21.9h0.1C1785.1,2397.6,1794.9,2388.1,1795,2376.1L1795,2376.1L1795,2376.1z
	 M2522.3,2300.5c-11.9,0.1-21.5,9.9-21.3,21.8c0.1,11.9,9.9,21.5,21.8,21.3c11.9-0.1,21.4-9.8,21.3-21.6
	C2544,2310.1,2534.3,2300.5,2522.3,2300.5L2522.3,2300.5z M2148.2,2354.5c-11.9-0.2-21.6,9.3-21.8,21.2s9.3,21.6,21.2,21.8
	s21.6-9.3,21.8-21.2c0-0.1,0-0.1,0-0.2C2169.4,2364.3,2160,2354.7,2148.2,2354.5L2148.2,2354.5z M1367.2,2322.3
	c0.1-13-9.9-21.4-21.1-21.6c-11.8-0.3-21.6,9-22,20.8s9,21.6,20.8,22c0.3,0,0.6,0,0.8,0c11.6,0.2,21.3-9,21.5-20.6
	C1367.2,2322.6,1367.2,2322.4,1367.2,2322.3L1367.2,2322.3z M1720.5,2354.6c-11.7-0.1-21.3,9.3-21.4,21c0,0.1,0,0.2,0,0.3
	c0,12.8,9.9,21.3,21.3,21.4c11.8,0,21.4-9.5,21.4-21.3S1732.3,2354.6,1720.5,2354.6L1720.5,2354.6z M2982.3,2114.9
	c2.9,8.8,9,14.3,18.1,15.7c9.5,1.5,17.4-1.9,22.6-10.1c5.1-8,4.8-16.2,0.1-24.4c-1-1.9-3-3.1-5.1-2.9c-9.5,0.1-19,0-28.5,0.1
	c-0.8,0-1.5,0.1-2.6,0.2C2981.7,2100,2979.7,2107,2982.3,2114.9L2982.3,2114.9z M2202.3,2354.7c-11-0.2-21.5,8.8-21.6,21.1
	c-0.1,11.7,9.3,21.2,21,21.3s21.2-9.3,21.3-21C2223.3,2363.8,2212.7,2354.9,2202.3,2354.7L2202.3,2354.7z M842.5,2112.6
	c1.7,8.9,8.6,15.8,17.4,17.6c8.9,1.8,18.2-1.8,23-9.2c5.3-8.1,5.3-16.4,0.5-24.8c-1-2-3.2-3.2-5.5-3c-9.1,0.1-18.1,0-27.2,0.1
	c-0.9,0-1.8,0.1-3,0.2C843,2099.2,841,2105.4,842.5,2112.6z M2737.3,2247.9c-11.7,0-21.2,9.5-21.2,21.2c0,11.7,9.5,21.2,21.2,21.2
	s21.2-9.5,21.2-21.2c0-0.1,0-0.1,0-0.2C2758.4,2257.3,2748.9,2247.9,2737.3,2247.9z M1645.5,2375.7c-0.1,11.6,9.3,21.1,20.9,21.2
	c11.6,0.1,21.1-9.3,21.2-20.9c0.1-11.6-9.3-21.1-20.9-21.2l0,0C1656.4,2354.5,1645.6,2363.1,1645.5,2375.7z M1132.2,2248.1
	c-11.6,0-20.9,9.4-20.9,21s9.4,20.9,21,20.9c11.5,0,20.8-9.3,20.9-20.8C1153.5,2258.5,1144.5,2248.1,1132.2,2248.1L1132.2,2248.1z
	 M2234,2375.7c-0.1,11.5,9.1,20.9,20.7,21c11.5,0.1,20.9-9.1,21-20.7c0.1-11.5-9.1-20.9-20.7-21l0,0
	C2243.5,2355,2234.2,2364.2,2234,2375.7z M1634.4,2375.8c-0.1-11.5-9.4-20.8-20.9-20.7s-20.8,9.4-20.7,20.9
	c0.1,11.5,9.4,20.8,20.9,20.7c0,0,0,0,0.1,0C1625.3,2396.6,1634.5,2387.2,1634.4,2375.8L1634.4,2375.8z M3003.8,2140.5
	c-11.5,0.1-20.7,9.5-20.6,20.9c0.1,11.4,9.5,20.7,20.9,20.6s20.7-9.5,20.6-20.9l0,0C3024.6,2149.6,3015.3,2140.4,3003.8,2140.5
	L3003.8,2140.5z M2897,2194.3c-11.5,0.1-20.7,9.4-20.6,20.9c0.1,11.5,9.4,20.7,20.9,20.6s20.7-9.4,20.6-20.9
	C2917.8,2203.5,2908.4,2194.3,2897,2194.3L2897,2194.3z M2576.4,2301.3c-11.5,0-20.8,9.4-20.8,20.9s9.4,20.8,20.9,20.8
	s20.8-9.4,20.8-20.9C2597.3,2310.5,2587.9,2301.2,2576.4,2301.3L2576.4,2301.3z M1292.2,2301.5c-11.3-0.2-20.6,8.7-20.8,20
	c0,0.2,0,0.5,0,0.7c-0.2,11.4,8.8,20.8,20.2,21s20.8-8.8,21-20.2c0-0.3,0-0.6,0-0.9C1312.7,2310.7,1303.6,2301.5,1292.2,2301.5
	C1292.2,2301.4,1292.2,2301.4,1292.2,2301.5L1292.2,2301.5z M885,2161.5c0.1-11.3-9-20.6-20.4-20.7c-11.2-0.1-20.3,8.8-20.7,19.9
	c-0.3,11.3,8.6,20.8,19.9,21.1c11.3,0.3,20.8-8.6,21.1-19.9C885,2161.8,885,2161.7,885,2161.5z M971.6,2194.6
	c-11.3-0.2-20.7,8.9-20.8,20.2c-0.2,11.3,8.9,20.7,20.2,20.8c11.3,0.2,20.7-8.9,20.8-20.2v-0.1
	C991.9,2204,982.9,2194.8,971.6,2194.6L971.6,2194.6z M2288.4,2375.9c0,11.3,9.1,20.5,20.4,20.5c11.3,0,20.5-9.1,20.5-20.4
	c0-11.2-9-20.4-20.2-20.5C2297.7,2355.4,2288.4,2364.5,2288.4,2375.9L2288.4,2375.9z M1580,2376.3c0.2-11.2-8.8-20.5-20-20.7
	s-20.5,8.8-20.7,20s8.8,20.5,20,20.7c0.1,0,0.1,0,0.2,0C1570.7,2396.3,1579.8,2387.4,1580,2376.3L1580,2376.3z M3072.7,2093.4
	c-9.4-0.1-18.7-0.1-28.1-0.2c-1.4,0-2.7,0.7-3.4,1.8c-4.8,6.4-5.9,13.5-3.1,21c3,8.2,10.9,13.6,19.6,13.6
	c9.1-0.2,15.8-4.4,19.8-12.7c3.3-6.7,2.3-17.5-4.4-23.3C3072.9,2093.5,3072.8,2093.4,3072.7,2093.4L3072.7,2093.4z M2790.4,2248.9
	c-11.2,0-20.2,9-20.3,20.2c0,11.2,9,20.2,20.2,20.3l0,0c11.5,0,20.4-9.5,20.1-20.2c0.1-11.1-8.8-20.1-19.9-20.2
	C2790.5,2248.9,2790.4,2248.9,2790.4,2248.9L2790.4,2248.9z M804.5,2128.5c11.2,3.3,22.9-3,26.3-14.1c1.9-6.3,0.7-13.1-3.1-18.4
	c-1.1-1.8-3.1-2.9-5.3-2.7c-8,0.1-16,0-24,0.1c-0.9,0-1.8,0.1-2.6,0.2C785.3,2103.5,788.1,2123.4,804.5,2128.5z M2649.4,2322.1
	c0-11-8.9-20-19.9-20.1c-11,0-20,8.9-20.1,19.9s8.9,20,19.9,20.1c0,0,0,0,0.1,0C2640.4,2342,2649.3,2333.1,2649.4,2322.1
	L2649.4,2322.1z M2362.9,2356c-11-0.1-20,8.7-20.1,19.7s8.7,20,19.7,20.1s20-8.7,20.1-19.7S2373.8,2356.1,2362.9,2356L2362.9,2356z
	 M1098.2,2269.3c0.1-11-8.7-20-19.7-20.1c-11-0.1-20,8.7-20.1,19.7c-0.1,11,8.7,20,19.7,20.1h0.1c10.9,0.1,19.9-8.6,20-19.5
	C1098.1,2269.4,1098.1,2269.3,1098.2,2269.3L1098.2,2269.3z M1238.8,2302.3c-11,0.1-19.8,9-19.7,19.9c0.1,11,9,19.8,19.9,19.7
	s19.8-9,19.7-19.9l0,0c0-10.9-8.8-19.7-19.7-19.7C1239,2302.2,1238.9,2302.2,1238.8,2302.3L1238.8,2302.3z M1526.5,2375.9
	c0-10.9-8.9-19.7-19.9-19.7c-10.9,0-19.7,8.9-19.7,19.9c0,10.9,8.8,19.7,19.7,19.7C1517.6,2395.8,1526.5,2386.9,1526.5,2375.9
	L1526.5,2375.9L1526.5,2375.9z M2931.4,2214.7c-0.4,10.7,7.9,19.7,18.7,20.2c0.1,0,0.2,0,0.3,0c9.1,0.4,19.9-6.1,20.3-19.4
	c0.3-11.6-8.9-19.6-19.2-20C2940.6,2195.3,2931.7,2203.8,2931.4,2214.7L2931.4,2214.7z M3077.3,2161.5c0.1-10.7-8.5-19.5-19.2-19.6
	c-0.1,0-0.2,0-0.3,0c-9.8,0.1-19.2,7.2-19.3,19.3c-0.3,10.6,8.1,19.3,18.6,19.6c0.3,0,0.5,0,0.8,0
	C3068.6,2180.7,3077.2,2172.1,3077.3,2161.5L3077.3,2161.5z M2396.3,2375.9c-0.1,8.8,6.7,19.3,19.3,19.3c11.6,0,19.3-9,19.4-19.3
	c-0.2-10.7-9.1-19.2-19.8-19C2404.9,2357.3,2396.6,2365.6,2396.3,2375.9z M1472,2375.9c0-10.5-8.4-19-18.9-19.2
	c-10.6,0-19.3,8.4-19.6,19.1c-0.1,10.6,8.5,19.3,19.1,19.4h0.1c10.5,0.2,19.1-8.2,19.3-18.7C1472,2376.3,1472,2376.1,1472,2375.9
	L1472,2375.9z M936.7,2214.9c-0.3-10.6-9.2-19-19.8-18.7c-10.3,0.3-18.5,8.6-18.7,18.9c-0.2,10.6,8.3,19.4,18.9,19.6
	c10.6,0.2,19.4-8.3,19.6-18.9C936.7,2215.5,936.7,2215.2,936.7,2214.9z M3112,2093.2c-3.8,0-7.6,0-11.3,0c-1.4-0.1-2.7,0.5-3.6,1.6
	c-4.7,5.4-6.5,11.6-4.6,18.5c2.7,9.8,10.9,15.6,21.1,14.7c8-0.7,13.7-4.9,16.6-12.2c2.9-7.3,1.8-14.5-3.4-20.8
	c-1.1-1.3-2.7-2-4.4-1.9C3119,2093.3,3115.4,2093.2,3112,2093.2L3112,2093.2z M2844,2250c-10.6,0-19.1,8.6-19.1,19.2
	s8.6,19.1,19.2,19.1s19.1-8.6,19.1-19.2S2854.6,2250,2844,2250z M2664.2,2321.8c-0.2,10.5,8.2,19.2,18.7,19.4s19.2-8.2,19.4-18.7
	s-8.2-19.2-18.7-19.4h-0.1C2673,2302.9,2664.5,2311.3,2664.2,2321.8L2664.2,2321.8z M810.7,2180.4c10.5-0.2,18.9-8.7,18.9-19.3
	c-0.1-10.5-8.6-19-19.1-18.9h-0.1c-10.4,0-18.8,8.3-18.8,18.7c0,0.2,0,0.3,0,0.5C791.6,2171.9,800.1,2180.4,810.7,2180.4
	L810.7,2180.4z M775.4,2116.6c3.5-7.6,2.3-14.7-2.9-21.2c-1.1-1.5-2.8-2.3-4.7-2.2c-6.6,0.1-13.3,0.2-19.9,0
	c-2.3-0.2-4.5,0.9-5.7,2.8c-4.8,6.3-5.7,13.3-2.5,20.5c3.4,7.4,9.5,11,17.6,11.5C765.6,2127.7,771.9,2124.2,775.4,2116.6z
	 M1166.2,2321.9c-0.1,10.4,8.3,19,18.7,19s19-8.3,19-18.7s-8.3-19-18.7-19c-0.1,0-0.1,0-0.2,0
	C1174.7,2303.2,1166.3,2311.6,1166.2,2321.9L1166.2,2321.9z M1024.7,2250.2c-10.4-0.3-19.1,7.8-19.4,18.2
	c-0.3,10.4,7.8,19.1,18.2,19.4c0.1,0,0.3,0,0.4,0c10.4,0.3,19.1-7.8,19.4-18.2c0.3-10.4-7.8-19.1-18.2-19.4
	C1025,2250.3,1024.8,2250.3,1024.7,2250.2z M2488.3,2375.9c0.1-10-8.4-18.5-18.4-18.7c-10.3-0.2-18.8,7.9-19,18.2c0,0.1,0,0.2,0,0.3
	c-0.1,10.8,8.2,18.7,18.6,18.9C2479.8,2394.7,2488.3,2386.3,2488.3,2375.9C2488.3,2376,2488.3,2376,2488.3,2375.9z M1398.7,2394.6
	c10.3,0.1,18.7-8.2,18.8-18.4s-8.2-18.7-18.4-18.8c-10.3-0.1-18.7,8.2-18.8,18.4c0,0.1,0,0.1,0,0.2
	C1380.3,2386.2,1388.5,2394.5,1398.7,2394.6L1398.7,2394.6z M3022.2,2215c0-10.1-8.3-18.2-18.4-18.2c-10.1,0-18.2,8.3-18.2,18.3
	s8.2,18.1,18.2,18.2s18.3-7.9,18.4-18C3022.2,2215.2,3022.2,2215.1,3022.2,2215z M1916.1,2428.9c-0.1,10,7.9,18.2,17.9,18.3
	s18.2-7.9,18.3-17.9l0,0c0.2-9.9-7.8-18.1-17.7-18.3c-0.1,0-0.1,0-0.2,0C1924.1,2410.6,1916,2419.4,1916.1,2428.9z M1880.4,2447
	c10,0,18-8.1,18-18s-8.1-18-18-18s-18,8.1-18,18S1870.5,2447,1880.4,2447z M2719.2,2322.2c0.1,9.9,8.3,17.9,18.2,17.8
	c9.9-0.1,17.9-8.3,17.8-18.2c-0.1-9.8-8.1-17.8-18-17.8s-18,8-18,18C2719.2,2322,2719.2,2322.1,2719.2,2322.2L2719.2,2322.2z
	 M2540.6,2376.3c0.1-10-8-18.3-18-18.4c-9.9-0.1-18.2,8.4-18.1,18.2c0.2,10,8.5,17.9,18.4,17.7
	C2532.5,2393.6,2540.3,2385.9,2540.6,2376.3L2540.6,2376.3z M3181.9,2115.3c2.9-7.1,1.1-15.1-4.4-20.4c-1-1.1-2.5-1.7-4-1.7
	c-5.7,0-11.5,0.1-17.2,0c-1.7,0-3.3,0.6-4.4,1.9c-7.3,7.1-7.5,18.8-0.4,26.1c7.1,7.3,18.8,7.5,26.1,0.4
	C3179.5,2119.8,3180.9,2117.6,3181.9,2115.3L3181.9,2115.3z M2023.1,2428.6c-0.2,9.9,7.7,18.2,17.6,18.4c9.9,0.2,18.2-7.7,18.4-17.6
	c0.2-9.9-7.7-18.2-17.6-18.4c-0.1,0-0.2,0-0.3,0C2031.4,2410.9,2023.3,2418.8,2023.1,2428.6z M1970.1,2429.2
	c0.1,9.9,8.3,17.9,18.2,17.7c9.9-0.1,17.9-8.3,17.7-18.2c-0.1-9.9-8.2-17.8-18.1-17.7c-9.9,0-17.9,8-17.9,17.9
	C1970.1,2428.9,1970.1,2429.1,1970.1,2429.2L1970.1,2429.2z M882.4,2215.3c0.1-9.9-7.9-18.1-17.8-18.2c-9.9-0.1-18.1,7.9-18.2,17.8
	s7.9,18.1,17.8,18.2c0.1,0,0.1,0,0.2,0C874.3,2233.1,882.3,2225.1,882.4,2215.3z M3129.8,2161.5c0.2-9.9-7.7-18.2-17.6-18.4
	c-9.9-0.2-18.2,7.7-18.4,17.6s7.7,18.2,17.6,18.4c0.1,0,0.2,0,0.3,0C3121.5,2179.3,3129.6,2171.4,3129.8,2161.5L3129.8,2161.5z
	 M1809.4,2428.8c0,9.9,8,18,17.9,18s18-8,18-17.9l0,0c0-9.9-8-18-17.9-18C1817.5,2410.9,1809.4,2418.9,1809.4,2428.8z
	 M2095.2,2411.1c-9.9-0.1-17.9,7.9-18,17.7c-0.1,9.9,7.9,17.9,17.7,18c9.9,0.1,17.9-7.9,18-17.7S2105.1,2411.2,2095.2,2411.1
	C2095.3,2411.1,2095.2,2411.1,2095.2,2411.1z M1132.7,2304.2c-8.5-0.4-17.6,5.6-18.3,17c-0.5,9.8,7,18.2,16.8,18.7
	c0.1,0,0.2,0,0.2,0c9.6,0.5,18.2-7.4,18.6-17.2s-7.3-18.1-17.1-18.5C1132.8,2304.2,1132.7,2304.2,1132.7,2304.2L1132.7,2304.2z
	 M1773.1,2411.1c-8,0.1-17.5,6.2-17.5,17.8c-0.2,9.6,7.4,17.6,17.1,17.8c0.3,0,0.6,0,0.9,0c9.8,0.1,17.7-7.8,17.8-17.6
	c0-0.1,0-0.2,0-0.4C1791.1,2418.9,1783,2411,1773.1,2411.1L1773.1,2411.1z M2914.9,2269.4c0.2-9.9-7.6-18.1-17.5-18.3
	s-18.1,7.6-18.3,17.5c-0.2,9.9,7.6,18.1,17.5,18.3c0,0,0,0,0.1,0c9.8,0.3,17.9-7.4,18.2-17.2
	C2914.9,2269.6,2914.9,2269.5,2914.9,2269.4L2914.9,2269.4z M1363.7,2376c0.1-9.8-7.8-17.9-17.7-17.9c-9.8-0.1-17.9,7.8-17.9,17.7
	l0,0c-0.3,9.8,7.4,18,17.3,18.3c9.8,0.3,18-7.4,18.3-17.3C1363.7,2376.5,1363.7,2376.3,1363.7,2376z M715.9,2094.9
	c-1-1.1-2.5-1.7-4-1.7c-5.4,0-10.9,0-16.3,0c-1.5,0-3,0.6-4.1,1.7c-3.1,2.7-5.1,6.5-5.8,10.6c-1.5,9.9,5.3,19.2,15.2,20.7
	c0.3,0,0.6,0.1,0.9,0.1c11.7,1.1,20.3-8.4,20-16.8C721.8,2102.9,719.7,2098.6,715.9,2094.9L715.9,2094.9z M2148.2,2411.3
	c-8.4-0.1-17.5,5.8-17.8,17.4c-0.2,9.7,6.8,17.4,17.3,17.8c9.7,0.1,17.7-7.7,17.8-17.4S2157.9,2411.4,2148.2,2411.3L2148.2,2411.3z
	 M971.1,2251.5c-9.7,0.1-17.5,8.1-17.4,17.8s8.1,17.5,17.8,17.4s17.5-8.1,17.4-17.8S980.8,2251.4,971.1,2251.5z M775.2,2161.3
	c0-9.7-7.8-17.6-17.5-17.7l0,0c-9.7,0-17.6,7.8-17.7,17.5c0,9.7,7.8,17.6,17.5,17.7l0,0C767.2,2178.9,775.1,2171,775.2,2161.3z
	 M1720.6,2446.3c9.5,0.1,17.3-7.5,17.4-17c0-0.1,0-0.1,0-0.2c0.1-9.7-7.7-17.6-17.4-17.6s-17.6,7.7-17.6,17.4
	c-0.2,9.5,7.4,17.3,16.8,17.4C1720,2446.3,1720.3,2446.3,1720.6,2446.3L1720.6,2446.3z M2201.9,2411.7c-9.5,0.1-17.1,7.8-17.1,17.3
	c0.1,9.5,7.8,17.1,17.3,17.1c9.4-0.1,17.1-7.7,17.1-17.2c0.1-9.4-7.5-17.1-17-17.2C2202.1,2411.7,2202,2411.7,2201.9,2411.7
	L2201.9,2411.7z M2593.6,2375.7c-0.1-9.4-7.9-17-17.4-16.8s-17,7.9-16.8,17.4c0.1,9.3,7.7,16.8,17.1,16.8
	c9.4,0.1,17.1-7.5,17.1-16.9C2593.6,2376.1,2593.6,2375.9,2593.6,2375.7L2593.6,2375.7z M1649.4,2428.7c-0.1,9.5,7.5,17.2,17,17.3
	s17.2-7.5,17.3-17l0,0c0.1-9.5-7.5-17.2-17-17.3S1649.5,2419.3,1649.4,2428.7z M2790.3,2339c9.4-0.1,16.9-7.8,16.8-17.1
	c-0.1-9.4-7.8-16.9-17.1-16.8c-9.4,0.1-16.9,7.7-16.8,17.1c0,9.4,7.7,17,17,17C2790.3,2339.1,2790.3,2339.1,2790.3,2339L2790.3,2339
	z M1275,2376c0,9.4,7.6,17,17,17s17-7.6,17-17s-7.6-17-17-17C1282.6,2359.1,1275,2366.7,1275,2376L1275,2376z M2271.7,2429.2
	c0.2-9.3-7.2-17-16.5-17.2s-17,7.2-17.2,16.5s7.2,17,16.5,17.2c0.1,0,0.2,0,0.2,0C2264,2445.9,2271.6,2438.5,2271.7,2429.2
	C2271.7,2429.3,2271.7,2429.3,2271.7,2429.2L2271.7,2429.2z M1630.4,2428.8c0.1-9.3-7.3-16.9-16.6-17c-9.3-0.1-16.9,7.3-17,16.6
	c0,0.3,0,0.5,0,0.8c0,9.1,7.8,16.6,17,16.5S1630.4,2438.1,1630.4,2428.8L1630.4,2428.8z M3058,2198.3c-9.2-0.1-16.7,7.3-16.8,16.4
	c0,0.1,0,0.1,0,0.2c-0.1,9.9,7.5,17,16.9,17c9.3,0,16.8-7.6,16.8-16.8C3074.8,2205.8,3067.3,2198.3,3058,2198.3L3058,2198.3z
	 M1078,2305.4c-9.2,0.1-16.6,7.6-16.5,16.8s7.6,16.6,16.8,16.5l0,0c9-0.1,16.4-6.9,16.7-16.8C1094.5,2312,1087.1,2305.3,1078,2305.4
	L1078,2305.4z M2951,2252.5c-9.1,0-16.6,7.4-16.6,16.5s7.4,16.6,16.5,16.6s16.6-7.4,16.6-16.5c0-0.1,0-0.2,0-0.2
	C2967.4,2259.8,2960.1,2252.5,2951,2252.5z M3214,2093.2c-2.1-0.2-4.2,0.5-5.8,2c-5.4,4.7-7.4,10.5-5.6,17.5
	c2.5,8.9,11.7,14.2,20.6,11.7s14.2-11.7,11.7-20.6c-0.9-3.4-2.9-6.3-5.6-8.5c-1.6-1.4-3.7-2.2-5.8-2.1c-1.6,0.1-3.3,0-5,0
	C3217,2093.2,3215.5,2093.3,3214,2093.2z M827,2215.3c0.1-9.1-7.2-16.5-16.2-16.6c-9.1-0.1-16.5,7.2-16.6,16.2s7.2,16.5,16.2,16.6
	C819.5,2231.7,826.9,2224.4,827,2215.3z M2292.4,2428.9c0,9.1,7.3,16.4,16.4,16.4c9.1,0,16.4-7.3,16.4-16.4
	c0-9.1-7.3-16.4-16.4-16.4l0,0c-9-0.1-16.3,7.1-16.4,16C2292.4,2428.7,2292.4,2428.8,2292.4,2428.9L2292.4,2428.9z M3164.8,2144.9
	c-9,0-16.3,7.2-16.3,16.2c0,0.1,0,0.2,0,0.3c0,9,7.3,16.3,16.3,16.3s16.3-7.3,16.3-16.3c0.1-8.9-7-16.2-15.9-16.3
	C3165,2144.9,3164.9,2144.9,3164.8,2144.9L3164.8,2144.9z M1543.5,2429.1c0.1,9,7.5,16.2,16.4,16.1c9-0.1,16.2-7.5,16.1-16.4
	s-7.4-16.1-16.3-16.1c-8.8-0.2-16.1,6.9-16.3,15.7C1543.4,2428.6,1543.4,2428.9,1543.5,2429.1L1543.5,2429.1z M2645.7,2376.1
	c0-8.9-7.2-16.2-16.2-16.2c-8.9,0-16.2,7.2-16.2,16.2v0.1c0,8.9,7.3,16.2,16.2,16.2C2638.4,2392.2,2645.6,2385,2645.7,2376.1z
	 M917.6,2252.9c-8.9-0.1-16.2,7.1-16.3,16s7.1,16.2,16,16.3s16.2-7.1,16.3-16v-0.1c0.1-8.8-7-16.1-15.8-16.2
	C917.7,2252.9,917.6,2252.9,917.6,2252.9z M646.7,2093.2c-3.5-0.4-6.1,1.2-8.5,3.4c-4.8,4.8-6.2,12.2-3.4,18.4
	c3,6.3,8.1,9.6,15.2,9.5c6.8-0.1,11.9-3.4,14.6-9.6c2.8-5.9,1.6-13-2.9-17.7c-2.4-2.7-5.3-4.5-9.1-4c-0.9,0.1-1.8,0.1-2.7,0
	C648.8,2093.3,647.8,2093.3,646.7,2093.2z M1239.4,2360c-8.8-0.2-16.2,6.7-16.4,15.6c-0.2,8.8,6.7,16.2,15.6,16.4
	c8.8,0.2,16.2-6.7,16.4-15.6c0-0.1,0-0.2,0-0.2C1255.1,2367.4,1248.2,2360.2,1239.4,2360z M2378.7,2429c0.1-8.8-6.9-16.1-15.8-16.2
	s-16.1,6.9-16.2,15.8c-0.1,8.8,6.9,16.1,15.8,16.2c0.1,0,0.2,0,0.2,0C2371.4,2444.7,2378.5,2437.7,2378.7,2429z M687.7,2161.1
	c-0.2,8.8,6.7,16.1,15.5,16.3c8.8,0.2,16.1-6.7,16.3-15.5c0-0.3,0-0.5,0-0.8c-0.1-8.8-7.2-15.8-16-15.8
	C694.3,2145.6,687.8,2152.7,687.7,2161.1L687.7,2161.1z M1506.4,2444.7c8.7,0.1,15.9-6.8,16-15.6c0.1-8.7-6.8-15.9-15.6-16
	c-8.7-0.1-15.8,6.8-16,15.5C1490.7,2437.3,1497.6,2444.5,1506.4,2444.7L1506.4,2444.7L1506.4,2444.7z M2859.9,2321.7
	c-0.1-8.7-7.3-15.7-16-15.5c-8.7,0.1-15.7,7.3-15.5,16c0.1,8.7,7.2,15.6,15.9,15.5c8.5,0.1,15.6-6.7,15.7-15.3
	C2859.9,2322.2,2859.9,2322,2859.9,2321.7L2859.9,2321.7z M1008.8,2322.1c0,8.5,6.9,15.4,15.4,15.4c8.5,0,15.4-6.9,15.4-15.4
	s-6.9-15.4-15.4-15.4C1015.7,2306.6,1008.8,2313.6,1008.8,2322.1z M2683.6,2360.7c-8.4-0.2-15.4,6.5-15.5,14.9
	c-0.2,8.4,6.5,15.4,14.9,15.5c8.3,0.2,15.3-6.4,15.5-14.7C2698.8,2368,2692.1,2361,2683.6,2360.7
	C2683.7,2360.8,2683.7,2360.8,2683.6,2360.7L2683.6,2360.7z M2430.8,2428.8c0-8.4-6.8-15.1-15.2-15c-8.4,0-15.1,6.8-15,15.2
	c0,8.3,6.7,15,15,15c8.2,0.2,15.1-6.4,15.3-14.6C2430.8,2429.2,2430.8,2429.1,2430.8,2428.8L2430.8,2428.8z M3096.6,2214.9
	c0,8.4,6.8,15.2,15.2,15.2s15.2-6.8,15.2-15.2c-0.2-8.4-7.2-15-15.6-14.8C3103.3,2200.3,3096.8,2206.8,3096.6,2214.9z M1467.9,2429
	c-0.1-8.4-6.9-15.2-15.3-15.1c-8.3-0.1-15.2,6.6-15.3,14.9c-0.1,8.3,6.6,15.2,14.9,15.3c0.2,0,0.5,0,0.7,0
	C1461.2,2443.9,1467.8,2437.2,1467.9,2429z M3019.1,2269.4c0.2-8.3-6.4-15.2-14.7-15.4c-0.1,0-0.3,0-0.4,0
	c-8.3,0.1-14.9,6.9-14.9,15.1c0.1,8.3,6.9,14.9,15.1,14.9C3012.4,2283.9,3019,2277.4,3019.1,2269.4L3019.1,2269.4z M3271.8,2093.3
	c-8.2-0.2-15,6.3-15.1,14.5c0,0.1,0,0.2,0,0.3c-0.1,8.3,6.2,14.9,14.9,15.1c8.3,0.1,15.1-6.6,15.1-14.9
	C3286.7,2100.1,3280.1,2093.4,3271.8,2093.3L3271.8,2093.3z M1185.3,2361c-8.2-0.2-15,6.3-15.2,14.5c0,0.1,0,0.2,0,0.3
	c-0.1,8.3,6.6,15,14.8,15.2c7.2,0,14.7-5.2,15.3-14.8C1200,2367.6,1193.7,2361.1,1185.3,2361z M864.5,2283.8
	c8.1,0,14.7-6.7,14.7-14.8s-6.7-14.7-14.8-14.7s-14.7,6.7-14.7,14.8C849.7,2277.2,856.3,2283.8,864.5,2283.8L864.5,2283.8
	L864.5,2283.8z M757.5,2200.4c-8.1,0-14.7,6.6-14.7,14.8c0,8.1,6.6,14.7,14.8,14.7s14.7-6.6,14.7-14.8
	C772.3,2207,765.6,2200.4,757.5,2200.4z M3204.2,2161.2c0,8,6.4,14.5,14.4,14.5s14.5-6.4,14.5-14.4s-6.4-14.5-14.4-14.5h-0.1
	C3210.7,2146.8,3204.2,2153.2,3204.2,2161.2C3204.2,2161.1,3204.2,2161.2,3204.2,2161.2L3204.2,2161.2z M2484,2429
	c0.1-8-6.3-14.5-14.3-14.6s-14.5,6.3-14.6,14.3s6.3,14.5,14.3,14.6c0.1,0,0.1,0,0.2,0c7.9,0.1,14.3-6.2,14.4-14.1
	C2484,2429.2,2484,2429.1,2484,2429z M596.7,2093.8c-8,0.1-14.4,6.5-14.3,14.5c0.1,8,6.5,14.4,14.5,14.3s14.4-6.5,14.3-14.5v-0.1
	C611.4,2100.8,605.1,2093.8,596.7,2093.8z M2897.2,2307.7c-7.8-0.1-14.2,6.1-14.4,13.9c0,0.1,0,0.3,0,0.4c0,7.9,6.5,14.3,14.4,14.2
	s14.3-6.5,14.2-14.4C2911.4,2314.1,2905,2307.7,2897.2,2307.7z M1384.7,2428.9c-0.1,7.8,6.1,14.3,13.9,14.4
	c7.8,0.1,14.3-6.1,14.4-13.9s-6.1-14.3-13.9-14.4C1391.3,2414.8,1384.8,2421,1384.7,2428.9z M957.3,2322.2c0.2,7.6,6.4,13.8,14,13.9
	c7.6,0.1,13.9-6,14.1-13.7c0.1-7.7-6.2-14.1-13.9-14.1C963.7,2308.2,957.4,2314.4,957.3,2322.2L957.3,2322.2z M2723.3,2375.7
	c-0.3,7.5,5.5,13.9,13,14.3c0.3,0,0.6,0,0.9,0c8.7,0.1,14.1-6.8,14.1-14.1c0-7.7-6.2-14-13.9-14.1
	C2729.6,2361.7,2723.3,2367.9,2723.3,2375.7L2723.3,2375.7z M663.7,2161.6c0.2-7.7-5.9-14.1-13.7-14.3c-7.7-0.2-14.1,5.9-14.3,13.7
	c-0.2,7.8,5.9,14.1,13.7,14.3c0.1,0,0.2,0,0.2,0C657.3,2175.3,663.6,2169.2,663.7,2161.6z M1132.5,2362.3
	c-7.6-0.2-13.9,5.7-14.1,13.3s5.7,13.9,13.3,14.1c7.6,0.2,13.9-5.7,14.1-13.3c0-0.1,0-0.1,0-0.2
	C1146,2368.7,1140.1,2362.4,1132.5,2362.3z M2509,2428.6c-0.2,7.5,5.7,13.7,13.2,13.9s13.7-5.7,13.9-13.2s-5.7-13.7-13.2-13.9
	c-0.1,0-0.1,0-0.2,0C2515.3,2415.2,2509.1,2421.1,2509,2428.6C2509,2428.5,2509,2428.6,2509,2428.6z M3178.1,2215.1
	c-0.1-7.4-6.1-13.2-13.5-13.2s-13.2,6.1-13.2,13.5c0.1,7.4,6.1,13.2,13.5,13.2l0,0C3172.3,2228.4,3178.1,2222.4,3178.1,2215.1
	L3178.1,2215.1z M1359.3,2429.1c0.1-7.4-5.7-13.4-13.1-13.6c-7.4-0.1-13.4,5.7-13.6,13.1c-0.1,7.4,5.7,13.4,13.1,13.6
	c0.1,0,0.1,0,0.2,0C1353.2,2442.3,1359.2,2436.4,1359.3,2429.1L1359.3,2429.1z M3058,2255.8c-7.3-0.1-13.4,5.7-13.5,13.1
	c-0.1,7.3,5.7,13.4,13.1,13.5c7.3,0.1,13.4-5.7,13.5-13.1v-0.1C3071.2,2261.8,3065.4,2255.9,3058,2255.8L3058,2255.8z
	 M1880.4,2469.6c-7.3-0.1-13.3,5.8-13.4,13.1s5.8,13.3,13.1,13.4c7.3,0.1,13.3-5.7,13.4-13
	C1893.5,2475.7,1887.7,2469.7,1880.4,2469.6z M2001.3,2482.6c-0.1-7.3-6.2-13.1-13.4-12.9c-7.3,0.1-13.1,6.2-12.9,13.4
	c0.1,7.2,6.1,13,13.3,12.9C1995.5,2496,2001.4,2490,2001.3,2482.6L2001.3,2482.6L2001.3,2482.6z M1934.2,2469.6
	c-7.3,0-13.3,5.8-13.3,13.1s5.8,13.3,13.2,13.3s13.3-5.8,13.3-13.1C1947.4,2475.6,1941.5,2469.6,1934.2,2469.6z M2041.3,2469.8
	c-7.2-0.1-13.1,5.7-13.2,12.9s5.7,13.1,12.9,13.2c7.2-0.1,13-5.8,13.1-12.9C2054.1,2476.4,2049.3,2469.9,2041.3,2469.8z
	 M1814.3,2482.4c-0.3,7.2,5.4,13.3,12.6,13.6s13.3-5.4,13.6-12.6c0.3-7.2-5.4-13.3-12.6-13.6h-0.1
	C1820.6,2469.6,1814.6,2475.2,1814.3,2482.4z M810.7,2282c7.1-0.1,12.8-6,12.8-13.1c-0.1-7.1-6.2-13.1-13.2-12.8
	c-7.2-0.1-13,5.7-13.1,12.8c-0.1,7.2,5.7,13,12.8,13.1C810.3,2282,810.5,2282,810.7,2282z M2082.1,2482.5c-0.3,7,5.2,13,12.2,13.3
	c7.1,0.3,13.2-5.2,13.5-12.3s-5.2-13.2-12.3-13.5c-7-0.4-13,5-13.4,12C2082.1,2482.1,2082.1,2482.3,2082.1,2482.5L2082.1,2482.5z
	 M3312.8,2108.2c-0.1,7.1,5.5,12.9,12.6,13s12.9-5.5,13-12.6c0-0.2,0-0.5,0-0.7c-0.2-7.1-6.2-12.6-13.2-12.3
	C3318.3,2095.8,3312.9,2101.4,3312.8,2108.2z M1773.3,2470.1c-7.1,0-12.7,5.8-12.7,12.9c0,7.1,5.8,12.7,12.9,12.7
	c7,0,12.6-5.7,12.7-12.7c0-7.1-5.7-12.8-12.7-12.9C1773.4,2470.1,1773.4,2470.1,1773.3,2470.1L1773.3,2470.1z M704.3,2202.4
	c-7.1-0.4-13.1,5-13.4,12.1s5,13.1,12.1,13.4c7.1,0.4,13.1-5,13.4-12.1v-0.1C716.7,2208.7,711.3,2202.8,704.3,2202.4L704.3,2202.4z
	 M2938.2,2322.1c0.1,7.1,5.9,12.7,12.9,12.6c7.1-0.1,12.7-5.9,12.6-12.9c-0.1-7-5.7-12.6-12.7-12.6c-7.1-0.1-12.8,5.6-12.9,12.7
	C2938.2,2322,2938.2,2322.1,2938.2,2322.1L2938.2,2322.1z M2802.8,2375.9c0-7-5.7-12.6-12.6-12.6s-12.6,5.7-12.5,12.6
	c0,6.9,5.6,12.5,12.6,12.6c6.9,0.1,12.5-5.3,12.6-12.2C2802.8,2376.2,2802.8,2376.1,2802.8,2375.9L2802.8,2375.9z M2576.4,2416.3
	c-7,0-12.6,5.7-12.5,12.7s5.7,12.6,12.7,12.5c6.9,0,12.5-5.7,12.5-12.6c0.1-6.9-5.4-12.5-12.3-12.6
	C2576.6,2416.3,2576.5,2416.3,2576.4,2416.3L2576.4,2416.3z M1708,2482.5c-0.3,6.9,5.1,12.6,11.9,12.9c6.9,0.3,12.6-5.1,12.9-11.9
	c0-0.2,0-0.4,0-0.6c0.1-6.8-5.2-12.4-12-12.6c-0.1,0-0.1,0-0.2,0C1713.8,2470.2,1708.1,2475.7,1708,2482.5z M2148.1,2470.3
	c-6.9-0.1-12.5,5.4-12.6,12.3c0,0.1,0,0.2,0,0.3c0.1,6.8,5.6,12.3,12.4,12.4c5.8,0.1,12.8-4.8,12.5-12.7
	C2160.4,2475.9,2154.9,2470.4,2148.1,2470.3L2148.1,2470.3L2148.1,2470.3z M3284.1,2161.7c0.2-6.8-5.3-12.5-12.1-12.7
	c-6.7-0.2-12.3,5.1-12.7,11.8c-0.2,6.8,5.3,12.5,12.1,12.7C3278.1,2173.6,3283.7,2168.4,3284.1,2161.7z M1078.4,2363.7
	c-6.8-0.1-12.4,5.4-12.5,12.2s5.4,12.4,12.2,12.5c6.8,0.1,12.4-5.4,12.5-12.2l0,0C1090.7,2369.4,1085.3,2363.8,1078.4,2363.7
	C1078.5,2363.6,1078.4,2363.6,1078.4,2363.7L1078.4,2363.7z M905.2,2322c0,6.8,5.5,12.3,12.3,12.3s12.3-5.5,12.3-12.3l0,0
	c0-6.8-5.5-12.3-12.3-12.3S905.2,2315.2,905.2,2322L905.2,2322z M1292.1,2416.6c-6.8-0.3-12.5,5.1-12.8,11.9
	c-0.3,6.8,5.1,12.5,11.9,12.8c0.2,0,0.4,0,0.7,0c6.8-0.1,12.2-5.7,12.1-12.5C1303.9,2422.1,1298.6,2416.8,1292.1,2416.6z
	 M543.4,2096.1c-6.8-0.4-12.5,4.8-12.9,11.5c-0.4,6.8,4.8,12.5,11.5,12.9c0.2,0,0.5,0,0.7,0c6.8,0,12.3-5.5,12.3-12.2
	C555,2101.8,549.9,2096.4,543.4,2096.1z M2189.6,2483.2c0.3,6.7,5.8,11.9,12.5,11.8c6.8-0.1,12.1-5.7,12-12.5v-0.1
	c-0.2-6.8-5.9-12.1-12.7-11.8S2189.3,2476.5,2189.6,2483.2L2189.6,2483.2z M1666.4,2494.9c6.7,0.1,12.2-5.2,12.3-11.9
	c0.1-6.7-5.2-12.2-11.9-12.3c-6.7-0.1-12.2,5.2-12.3,11.9l0,0C1654.4,2489.3,1659.7,2494.7,1666.4,2494.9L1666.4,2494.9z
	 M608.7,2161.3c0-6.6-5.3-11.9-11.9-11.9s-11.9,5.3-11.9,11.9s5.3,11.9,11.9,11.9h0.1C603.4,2173.1,608.7,2167.8,608.7,2161.3z
	 M2254.7,2471.1c-6.5,0-11.7,5.3-11.7,11.8s5.3,11.7,11.8,11.7s11.7-5.3,11.7-11.8S2261.2,2471,2254.7,2471.1z M2640.9,2428.9
	c0.1-6.3-4.8-11.4-11.1-11.6c-0.1,0-0.2,0-0.3,0c-6.4-0.1-11.6,5-11.7,11.4c0,0.1,0,0.3,0,0.4c0.1,6.3,5.2,11.4,11.5,11.3
	c0.1,0,0.1,0,0.2,0c6.2,0.1,11.3-4.8,11.4-11C2640.9,2429.3,2640.9,2429.1,2640.9,2428.9L2640.9,2428.9z M1625,2482.6
	c-0.1-6.2-5.1-11.1-11.3-11.3c-6.3,0.1-11.5,5.2-11.6,11.5c0,6.3,5.1,11.4,11.4,11.4c0.1,0,0.1,0,0.2,0c6.2,0,11.3-4.9,11.3-11.1
	C1625,2482.9,1625,2482.7,1625,2482.6z M2320,2483c0.1-6.2-4.7-11.4-10.9-11.6c-6.1-0.3-11.7,5.2-11.7,11.4s5.1,11.2,11.3,11.2
	c6.1,0.2,11.2-4.7,11.4-10.8C2320,2483.2,2320,2483.1,2320,2483L2320,2483z M3112,2257.7c-6.3-0.1-11.4,5-11.4,11.2
	c-0.1,6.3,5,11.4,11.2,11.4l0,0c6.3,0.1,11.4-5,11.4-11.2C3123.3,2262.9,3118.3,2257.8,3112,2257.7L3112,2257.7z M1227.8,2429.1
	c0,6.2,5.1,11.1,11.2,11.1c6.2,0,11.1-5.1,11.1-11.2c-0.1-6.8-5.2-11-11.2-11.3C1232.9,2417.7,1227.6,2423.1,1227.8,2429.1z
	 M2844.3,2387.1c6.2-0.1,11.1-5.2,11-11.3c-0.1-6.2-5.2-11.1-11.3-11s-11,5.1-11,11.2c0,6.1,4.9,11.1,11.1,11.2
	C2844.1,2387.2,2844.2,2387.2,2844.3,2387.1L2844.3,2387.1z M757.8,2258c-6.1-0.1-11.1,4.8-11.2,10.9c-0.1,6.1,4.8,11.1,10.9,11.2
	s11.1-4.8,11.2-10.9S763.9,2258.1,757.8,2258L757.8,2258z M2993,2322.2c0,6,4.9,10.9,10.9,10.8c0.1,0,0.1,0,0.2,0
	c6.4-0.3,10.9-4.9,10.8-11.1c-0.6-6.1-5.9-10.5-12-10C2997.6,2312.4,2993.4,2316.8,2993,2322.2L2993,2322.2z M3229.7,2215.2
	c0-6.1-4.9-11-11-11s-11,4.9-11,11s4.9,11,11,11h0.1C3224.8,2226,3229.6,2221.1,3229.7,2215.2L3229.7,2215.2z M649.7,2204.3
	c-6,0-10.8,4.8-10.9,10.8s4.8,10.8,10.8,10.9c6,0,10.8-4.8,10.9-10.8c0-0.1,0-0.2,0-0.3C660.4,2209.1,655.6,2204.3,649.7,2204.3
	L649.7,2204.3z M1559.8,2472c-6-0.1-10.9,4.7-10.9,10.6c-0.1,6,4.7,10.9,10.6,10.9c6,0.1,10.9-4.7,10.9-10.6c0-0.1,0-0.2,0-0.2
	C1570.4,2476.8,1565.7,2472.1,1559.8,2472z M2362.7,2472c-6,0-10.8,4.8-10.8,10.8s4.8,10.8,10.8,10.8s10.8-4.8,10.8-10.8
	c0-0.1,0-0.1,0-0.2C2373.4,2476.7,2368.6,2472,2362.7,2472z M1034.9,2376c0-5.9-4.8-10.6-10.6-10.6c-5.9,0-10.6,4.8-10.6,10.6
	s4.7,10.6,10.6,10.6c5.8,0,10.6-4.7,10.6-10.5V2376z M2693.9,2429c0.1-5.8-4.5-10.5-10.3-10.6c-0.1,0-0.2,0-0.3,0
	c-5.8,0.1-10.4,4.8-10.3,10.5c0.1,5.8,4.8,10.4,10.5,10.4l0,0C2689.2,2439.3,2693.8,2434.7,2693.9,2429z M854.1,2322
	c-0.2,5.5,4.1,10.1,9.7,10.3c0.2,0,0.4,0,0.6,0c5.7,0.1,10.4-4.3,10.5-10c0-0.2,0-0.4,0-0.6c-0.2-5.7-4.9-10.3-10.6-10.2
	C858.6,2311.5,854,2316.2,854.1,2322L854.1,2322L854.1,2322z M3378.8,2098.1c-5.6-0.2-10.4,4.1-10.6,9.7c-0.2,5.6,4.1,10.4,9.7,10.6
	c0.2,0,0.4,0,0.5,0c5.6,0,10.2-4.6,10.1-10.3C3388.5,2102.7,3384.3,2098.3,3378.8,2098.1z M1506.3,2472.9c-5.4,0.2-9.7,4.7-9.6,10.1
	c0.1,5.4,4.5,9.7,9.9,9.8c5.5,0,10-4.5,10-10v-0.1c-0.1-5.4-4.5-9.8-9.9-9.7C1506.6,2472.9,1506.4,2472.9,1506.3,2472.9
	L1506.3,2472.9z M2897.1,2366.2c-5.4,0-9.8,4.4-9.8,9.8l0,0c0.1,5.4,4.4,9.7,9.8,9.8c5.4,0,9.8-4.4,9.8-9.8
	S2902.5,2366.2,2897.1,2366.2L2897.1,2366.2z M3325.6,2151.4c-5.3,0-9.7,4.2-9.7,9.6c0,0.1,0,0.1,0,0.2c0,5.4,4.4,9.7,9.7,9.7
	s9.7-4.4,9.7-9.7C3335.3,2155.8,3330.9,2151.4,3325.6,2151.4z M1194.8,2429c0-5.3-4.3-9.7-9.6-9.7c-0.1,0-0.2,0-0.2,0
	c-5.3,0.2-9.4,4.7-9.2,10c0.2,5.1,4.3,9.1,9.4,9.2C1190.4,2438.5,1194.7,2434.2,1194.8,2429z M2425.2,2478.8
	c-0.9-2.3-2.6-4.1-4.8-5.2c-4.4-2.2-9.6-1-12.7,2.8c-3.1,3.9-3,8.6,0.4,12.7c5.7-1.3,11.6-1,17.3-2.9
	C2426.3,2482.4,2426.2,2481.3,2425.2,2478.8L2425.2,2478.8z M3057.9,2313c-5,0-9,4-9,9s4,9,9,9s9-4,9-9v-0.1
	C3066.8,2317,3062.8,2313,3057.9,2313z M1452.9,2473.8c-5-0.1-9.1,3.9-9.1,8.9s3.9,9.1,8.9,9.1c5,0.1,9.1-3.9,9.1-8.9v-0.1
	C1461.8,2477.9,1457.9,2473.9,1452.9,2473.8z M3173.8,2269.1c0-5-4-9-9-9s-9,4-9,9s4,9,9,9h0.1c4.9,0,8.9-3.9,8.9-8.8
	C3173.8,2269.3,3173.8,2269.2,3173.8,2269.1L3173.8,2269.1z M971.7,2367.2c-4.8-0.3-8.8,3.3-9.1,8.1c0,0.2,0,0.4,0,0.5
	c-0.1,4.8,3.6,8.8,8.4,9c4.8,0.2,8.9-3.5,9.1-8.3c0-0.1,0-0.3,0-0.4c0.2-4.7-3.4-8.7-8.1-8.9
	C971.9,2367.2,971.8,2367.2,971.7,2367.2z M819,2322c0-4.6-3.7-8.3-8.3-8.3l0,0c-4.7,0-8.6,3.8-8.6,8.5v0.1c0.3,4.6,4.1,8.1,8.7,8.1
	C815.3,2330.3,819,2326.6,819,2322z M3271.9,2206.8c-4.6-0.1-8.5,3.6-8.5,8.3s3.6,8.5,8.3,8.5s8.5-3.6,8.5-8.3
	S3276.6,2206.9,3271.9,2206.8z M706.3,2276.5c1.1,0.7,2.5,0.5,3.3-0.4c2.8-2.6,3.9-5.7,2.9-9.4c-0.8-3.5-3.6-6.1-7.2-6.7
	c-3.3-0.8-6.8,0.5-8.8,3.3c-0.9,1.5-1.7,3-2.3,4.6C698.2,2271.6,702.4,2273.8,706.3,2276.5L706.3,2276.5z M1140.1,2428.9
	c0-4.4-3.5-7.9-7.9-7.9s-7.9,3.5-7.9,7.9c0,4.3,3.5,7.9,7.8,7.9c4.3,0.1,7.9-3.3,8-7.7C1140.1,2429.1,1140.1,2429,1140.1,2428.9
	L1140.1,2428.9z M1399.1,2474.9c-4.4-0.1-8,3.3-8.1,7.7s3.3,8,7.7,8.1c4.4,0.1,8-3.3,8.1-7.7c0-0.1,0-0.1,0-0.2
	C1406.8,2478.5,1403.4,2475,1399.1,2474.9L1399.1,2474.9z M2732.5,2430.4c3.8-0.8,7.4-2.4,11.3-2.6c0.9-0.1,1.8-1,2.6-1.5
	c-2.5-5.7-6.8-8.1-11.8-6.7c-2.4,0.7-4.4,2.2-5.6,4.3c-1.3,1.8-1.7,4.2-1,6.4C2730.8,2430.9,2730.7,2430.8,2732.5,2430.4
	L2732.5,2430.4z M924.2,2375.7c-0.1-3.6-3.2-6.5-6.8-6.4c-3.7,0-6.6,2.9-6.7,6.6c0,0.1,0,0.3,0,0.4c0.1,3.6,3.1,6.5,6.8,6.5
	s6.7-3.1,6.7-6.8C924.2,2375.8,924.2,2375.7,924.2,2375.7z M3432.9,2101.5c-3.6-0.3-6.8,2.4-7.1,6c0,0.2,0,0.3,0,0.5
	c-0.2,3.7,2.6,6.8,6.3,7c3.8,0.1,7-2.8,7.2-6.6C3439.3,2104.9,3436.5,2101.8,3432.9,2101.5L3432.9,2101.5z M3378.8,2154.5
	c-3.7-0.2-6.8,2.7-7,6.4c0,0.1,0,0.2,0,0.3c0,3.7,2.9,6.7,6.6,6.7c0.1,0,0.3,0,0.4,0c3.6,0,6.5-2.9,6.5-6.6c0,0,0,0,0-0.1
	C3385.3,2157.7,3382.4,2154.6,3378.8,2154.5L3378.8,2154.5z M1346.3,2476.2c-3.7-0.4-7,2.3-7.3,5.9c-0.4,3.7,2.3,7,5.9,7.3
	c0.2,0,0.3,0,0.5,0c3.7,0.4,7-2.3,7.3-5.9c0.4-3.7-2.3-7-5.9-7.3C1346.7,2476.2,1346.5,2476.2,1346.3,2476.2z M1078.3,2422.7
	c-3.4,0-6.2,2.8-6.2,6.3c0,3.2,2.5,5.9,5.7,6.2c3.4,0.3,6.4-2.3,6.7-5.7s-2.3-6.4-5.7-6.7
	C1078.7,2422.7,1078.5,2422.7,1078.3,2422.7z M1833.6,2537.4c0.1-0.4,0.2-0.9,0.2-1.3c0.1-3.7-2.9-6.7-6.5-6.7c-0.1,0-0.3,0-0.4,0
	c-3.6,0.3-6.3,3.4-6.2,7c0.2,2,1.1,3,3.1,3.1c2.8,0.1,5.7,0,8.8,0C1833.2,2538.4,1833.4,2537.9,1833.6,2537.4L1833.6,2537.4z
	 M1773.6,2540.6c0.4,0,0.9,0,1.4,0c2.3-0.1,3.6-1.1,4.1-3.4c0.6-2.3-0.2-4.6-2.1-6.1c-1.9-1.4-4.3-1.6-6.4-0.5c-1.9,1-3.1,3-3,5.2
	c0,3,1.6,5.1,4.6,4.8C1772.7,2540.6,1773.2,2540.6,1773.6,2540.6L1773.6,2540.6z M1884,2530.1c-2.5-1.6-5.8-1.4-8,0.6
	c-0.9,0.9-1.7,2.1-2.1,3.3c-0.7,1.5-0.3,3.3,0.8,4.5c3.8,0,7.8,0.5,11.7-0.3C1887.3,2534.1,1886.5,2531.8,1884,2530.1z
	 M1292.3,2477.3c-3.1-0.1-5.6,2.3-5.8,5.3c0,0.1,0,0.2,0,0.3c-0.1,3,2.3,5.5,5.3,5.5c3,0.2,5.6-2.2,5.8-5.2c0-0.1,0-0.2,0-0.3
	C1297.6,2479.8,1295.2,2477.4,1292.3,2477.3L1292.3,2477.3z M2462.6,2481c0.7-0.1,1.5-0.2,2.2-0.4c0.9-0.2,1.7-0.4,2.6-0.5
	c3-0.4,5.9-0.7,8.9-1c0.8-0.1,1.3-0.9,1.2-1.7c-0.1-0.3-0.2-0.5-0.4-0.8c-5.1-6.1-14.6-3.6-16.5,2.9c0,0.5,0,0.9,0.2,1.3
	C2461.3,2481,2461.9,2481,2462.6,2481L2462.6,2481z M1941,2536c0.5-2.2-0.6-3.8-2-5.2c-1.3-1.3-3.1-2-4.9-1.9c-1.8,0-3.6,0.7-4.9,2
	c-1.5,1.3-2.1,3.3-1.7,5.3C1932.1,2536.9,1937.9,2536.8,1941,2536L1941,2536z M1720.4,2539.5c0.9,0,1.8,0,2.7,0
	c1.5,0.1,2.9-1.1,3-2.6v-0.1c0.4-2.3-0.6-4.6-2.7-5.7c-1.6-1.2-3.8-1.2-5.5-0.1c-2.1,1.1-3.2,3.3-2.9,5.6c0.2,2,1.1,2.8,3.2,3
	C1718.9,2539.5,1719.7,2539.5,1720.4,2539.5L1720.4,2539.5z M1669.1,2531.6c-1.8-1.2-4.2-0.9-5.8,0.6c-0.7,0.8-1.2,1.7-1.5,2.7
	c-0.5,1.2-0.1,2.6,0.9,3.4c2.7,0.5,5.4,0.4,8.1-0.1C1671.7,2534.6,1671.3,2533,1669.1,2531.6L1669.1,2531.6z M2956.1,2370.9
	c0.2-0.1,0.2-0.5,0.4-1.1c-3.3-3.1-8.5-2.8-11.6,0.5c-1.1,1.2-1.8,2.6-2.1,4.2C2947.9,2374.1,2952,2372.3,2956.1,2370.9
	L2956.1,2370.9z M1994.5,2533.2c-1.3-3.3-3.6-4.9-6.7-4.7c-1.7,0.1-3.2,0.7-4.5,1.9c-0.9,0.8-1.8,1.6-1.5,3
	C1986,2534.1,1990.3,2534.1,1994.5,2533.2L1994.5,2533.2z M1239.3,2478.8c-2.2-0.1-4.2,1.6-4.3,3.8c-0.1,2.2,1.6,4.2,3.8,4.3
	c2.2,0.2,4.2-1.5,4.3-3.8c0-0.1,0-0.2,0-0.3C1243.2,2480.7,1241.5,2478.9,1239.3,2478.8L1239.3,2478.8L1239.3,2478.8z
	 M3220.2,2262.3c-1.8-0.4-3.6-0.1-5.2,0.8c-2.6,1.6-3.6,4.1-2.4,6.8c3.7-1.5,7.3-3.2,10.7-5.3
	C3222.8,2262.9,3221.5,2262.5,3220.2,2262.3z M1028.2,2427.8c-1-3.2-4.3-4-6.8-1.7c-0.6,0.4-0.7,1.2-0.3,1.8
	c0.1,0.2,0.3,0.3,0.5,0.4c2.1,0.6,3.9,2.3,6.6,1.5C1028.3,2429.2,1028.3,2428.5,1028.2,2427.8z M1617.7,2535.4
	c0.3-1.3-0.3-2.7-1.6-3.3c-0.9-0.6-1.9-0.9-2.9-0.9c-1,0.2-2,0.6-2.8,1.3c-1,0.6-1.4,1.8-0.9,2.9
	C1612.3,2535.9,1615,2535.9,1617.7,2535.4z M2036.2,2531c1.2-0.3,2.5-0.6,3.7-0.8c1.3-0.1,2.7,0,5.1,0
	C2041,2527.5,2039,2527.8,2036.2,2531L2036.2,2531z M3107.9,2317c1.1-0.2,2.1-0.3,2.7-1.6C3108.4,2315.6,3108.4,2315.6,3107.9,2317
	L3107.9,2317z M1560.1,2532.4c-0.1-0.1-0.3-0.2-0.4-0.2c-0.2,0.1-0.4,0.2-0.6,0.3l0.4,0.2L1560.1,2532.4z"/>
<path class="st5" d="M393,2071.5h3150.5c8.5,0,15.3,6.9,15.3,15.3v1c0,8.5-6.9,15.3-15.3,15.3H393c-8.5,0-15.3-6.9-15.3-15.3v-1
	C377.7,2078.3,384.5,2071.5,393,2071.5z"/>
<path class="st18" d="M2034.6,285.6h341.5c8.8,0,15.9,7.1,15.9,15.9v122c0,8.8-7.1,15.9-15.9,15.9h-341.5c-8.8,0-15.9-7.1-15.9-15.9
	v-122C2018.7,292.7,2025.8,285.6,2034.6,285.6z"/>
<path class="st18" d="M2063.8,416.2v84.9l97.8-97.8C2161.6,403.3,2065.8,416.2,2063.8,416.2z"/>
<path class="st19" d="M2051.5,300.8h307.7c7.5,0,13.5,6,13.5,13.5v96.3c0,7.5-6,13.5-13.5,13.5h-307.7c-7.5,0-13.5-6-13.5-13.5
	v-96.3C2038,306.9,2044,300.8,2051.5,300.8z"/>
<path class="st18" d="M2220.2,331.3H2069c-3.7,0-6.6-3-6.6-6.6c0-3.6,3-6.6,6.6-6.6h151.2c3.7,0,6.6,3,6.6,6.6
	C2226.8,328.3,2223.9,331.3,2220.2,331.3z"/>
<path class="st18" d="M2066.1,349.2h280.4c2,0,3.7,1.7,3.7,3.7v0.1c0,2-1.7,3.7-3.7,3.7h-280.4c-2,0-3.7-1.7-3.7-3.7v-0.1
	C2062.5,350.9,2064.1,349.2,2066.1,349.2z"/>
<path class="st18" d="M2066.1,363.6h280.4c2,0,3.7,1.7,3.7,3.7v0.1c0,2-1.7,3.7-3.7,3.7h-280.4c-2,0-3.7-1.7-3.7-3.7v-0.1
	C2062.5,365.3,2064.1,363.6,2066.1,363.6z"/>
<path class="st18" d="M2279.4,404.2h9.2c1.9,0,3.5,1.6,3.5,3.5v7.6c0,1.9-1.6,3.5-3.5,3.5h-9.2c-1.9,0-3.5-1.6-3.5-3.5v-7.6
	C2275.9,405.8,2277.4,404.2,2279.4,404.2z"/>
<path class="st18" d="M2308.9,404.2h9.2c1.9,0,3.5,1.6,3.5,3.5v7.6c0,1.9-1.6,3.5-3.5,3.5h-9.2c-1.9,0-3.5-1.6-3.5-3.5v-7.6
	C2305.3,405.8,2306.9,404.2,2308.9,404.2z"/>
<path class="st18" d="M2338.3,404.2h9.2c1.9,0,3.5,1.6,3.5,3.5v7.6c0,1.9-1.6,3.5-3.5,3.5h-9.2c-1.9,0-3.5-1.6-3.5-3.5v-7.6
	C2334.8,405.8,2336.4,404.2,2338.3,404.2z"/>
<path class="st13" d="M1596.4,2073.4h-577.7c0-20.5,16.6-37.1,37.1-37.1h540.6V2073.4z"/>
<path class="st13" d="M1597,2073.4h-308.5l131-288.3c3.8-8.4,12.2-13.8,21.4-13.8H1720c5.1,0,9.2,4.1,9.2,9.2c0,1.3-0.3,2.6-0.8,3.8
	L1597,2073.4z"/>
<path class="st8" d="M1720.1,1771.3h-254.8c-9.2,0-17.6,5.4-21.4,13.8l-131,288.3H1597l131.4-289.1c2.1-4.6,0-10.1-4.6-12.2
	C1722.6,1771.6,1721.4,1771.3,1720.1,1771.3z"/>
<ellipse transform="matrix(0.4346 -0.9006 0.9006 0.4346 -852.5896 2486.7917)" class="st14" cx="1554.3" cy="1922.4" rx="45" ry="21.8"/>
<path class="st6" d="M984.5,1346.2c0,0-26.2,133.8-55.2,157.3S996,1640,1029.1,1611s2.3-92.4,2.3-92.4s-17.9-11,12.4-81.4
	c30.4-70.4-51.4-122.8-51.4-122.8L984.5,1346.2z"/>
<path class="st7" d="M992.5,1314.4l-8,31.7c0,0-3.7,18.6-9.7,43.2c11.3,52.8,32.5,87.2,51.4,109.1c0.6-12.2,4.7-31.3,17.6-61.2
	C1074.2,1366.9,992.5,1314.4,992.5,1314.4z"/>
<path class="st6" d="M1150.3,1397.1c-17.6,48.6-60.7,87.6-88,78.6c-44.7-14.7-77.2-49.6-69.5-126.8c9-90.9,79-101.3,120-89.7
	S1169.8,1343.3,1150.3,1397.1z"/>
<path class="st16" d="M923.9,1508.3l-42.2,16.5l66.6,85.3l-19,34c0,0,68.6,51.5,89.4,151.2c20.8,99.7,18.6,184.7,18.6,184.7
	s5.1-202.3-5-241C1012.7,1664.1,923.9,1508.3,923.9,1508.3z"/>
<path class="st16" d="M1031.9,1524.8c0,0,52.7,135.3,61.1,173.4s10,224.2,10,224.2s24.2-162.3,17.2-210.3s-17-91.4-17-91.4l-32-23.6
	c0,0-6-64.3-9.4-65.2S1031.9,1524.8,1031.9,1524.8z"/>
<path class="st6" d="M1001.2,2020.9c102.5-31.1,90.1-46.6,127.4-29s84,29.6,62.1,35.2s-54.9-12.4-54.9-12.4s5.2,28-13.5,36.3
	s-101.4,11.3-147.5-1.6C928.7,2036.5,1001.2,2020.9,1001.2,2020.9z"/>
<path class="st2" d="M998.3,2016.1h20.4l-10.2,58c0,0-40.2-6-37.2-10S998.3,2016.1,998.3,2016.1z"/>
<path class="st4" d="M804.3,1555.1c-40,70-52.7,108.2-85.3,239.2s-45.7,190.6-9.7,207.8c29.8,14.3,246.7,79.3,273,71.3
	c12,0.7,30.4-61.3,30.4-61.3l-197.4-88c0,0,57.1-136.4,67-226s-34-143-56-143H804.3z"/>
<path class="st6" d="M1011.5,1355c-9.7,30.3-5.5,36.5-18.9,39.3s-25.6-10.4-29.5-29.1s3.7-36,17-38.9S1017.3,1336.8,1011.5,1355z"/>
<path class="st15" d="M1168.7,1299.8c-52.3,93-156.3,79.3-219.4,47.3c-51.5-26.1,146.9-124.9,146.9-124.9L1168.7,1299.8z"/>
<path class="st15" d="M998.3,1222.2c-19.4-58.5-98.9-44.7-134.9,33.2s19.1,129.9,52.5,110.8S998.3,1222.2,998.3,1222.2z"/>
<g>
	<path class="st20" d="M2559.3,1123c1-9.2,1.6-18.5,1.6-27.8c0-5-0.2-9.9-0.4-14.8l-45.9-14.8c-2.8-19-8.2-37.5-16.3-55l30.4-37.5
		c-7-12.4-15.1-24.1-24.1-35.1l-45.9,15c-13.4-13.7-28.7-25.5-45.4-34.9l2.6-48.2c-12.9-5.9-26.3-10.6-40.1-14.2l-28.4,39.1
		c-18.9-3.2-38.2-3.7-57.3-1.5l-26.3-40.6c-13.9,2.8-27.5,6.9-40.8,12.1v48.3c-17.2,8.5-33.1,19.5-47.2,32.5l-45-17.4
		c-9.6,10.5-18.3,21.8-25.9,33.7l28.4,39c-8.9,17-15.4,35.2-19.2,54.1l-46.6,12.4c-1,9.2-1.6,18.5-1.6,27.8c0,5,0.2,9.9,0.4,14.8
		l45.9,14.8c2.8,19,8.2,37.5,16.3,55l-30.4,37.5c7,12.4,15.1,24.1,24.1,35.1l45.9-15c13.4,13.7,28.7,25.5,45.4,34.9l-2.6,48.2
		c12.9,5.9,26.3,10.6,40.1,14.2l28.4-39.1c18.9,3.2,38.2,3.7,57.3,1.5l26.3,40.6c13.9-2.8,27.6-6.9,40.8-12.1l-0.1-48.3
		c17.2-8.5,33.1-19.5,47.2-32.5l45,17.4c9.6-10.5,18.3-21.8,25.9-33.7l-28.4-39c8.9-17,15.4-35.2,19.2-54.1L2559.3,1123z
		 M2313.4,1192.3c-53.6,0-97.1-43.4-97.1-97c0-53.6,43.4-97.1,97-97.1s97.1,43.4,97.1,97v0.1
		C2410.4,1148.9,2367,1192.3,2313.4,1192.3L2313.4,1192.3z"/>
	<path class="st19" d="M2445.8,1207.3c-2.8,0-5-2.2-5-5c0-1.2,0.4-2.3,1.2-3.2c36.3-43.7,47.1-103.1,28.7-156.8
		c-1-2.6,0.3-5.5,2.9-6.4c2.6-1,5.5,0.3,6.4,2.9c0,0.1,0.1,0.2,0.1,0.3c19.6,57,8,120.1-30.4,166.5
		C2448.7,1206.7,2447.3,1207.3,2445.8,1207.3z"/>
	<path class="st19" d="M2431.8,978.3c-1.3,0-2.5-0.5-3.4-1.4c-16.1-15.2-35.2-26.9-56-34.5c-2.6-0.9-4-3.8-3.1-6.4
		c0.9-2.6,3.8-4,6.4-3.1h0.1c22.1,8,42.3,20.5,59.4,36.6c2,1.9,2.1,5.1,0.2,7.1C2434.4,977.7,2433.1,978.3,2431.8,978.3
		L2431.8,978.3z"/>
	<path class="st19" d="M2275.8,937.8c-2.8,0-5-2.2-5-5c0-2.3,1.6-4.3,3.8-4.9c13.8-3.5,28.1-5.2,42.4-5.2c2.8,0,5,2.2,5,5
		s-2.2,5-5,5c-13.5,0-26.9,1.6-39.9,4.9C2276.6,937.8,2276.2,937.8,2275.8,937.8z"/>
</g>
<path class="st20" d="M2111.3,869.6c6.5-23.3,11.2-47.1,13.9-71.2l-73.5-33.1c0.4-7,0.6-14,0.6-21c0-19.3-1.4-38.5-4.3-57.6l70-39.8
	c-5-23.7-11.9-46.9-20.6-69.6l-80.4,4.9c-11-23.9-24.3-46.6-39.9-67.9l43.5-67.8c-15.5-18.6-32.4-36-50.6-52l-68.9,41.7
	c-20.8-16.1-43.2-30.1-66.8-41.7l7-80.3c-22.4-9.3-45.4-16.8-68.9-22.5l-41.7,69c-22.4-3.9-45.1-5.9-67.8-5.9
	c-3.6,0-7.2,0.1-10.7,0.1l-31.1-74.3c-24.1,2.1-48,6.1-71.5,12l-4.9,80.4c-25.1,8-49.3,18.5-72.2,31.4l-62.1-51.3
	c-20.3,13.2-39.6,27.9-57.7,44l33.1,73.5c-18.5,18.7-35,39.2-49.4,61.3l-78.8-16.6c-11.9,21.1-22.2,43-30.7,65.7l63.4,49.7
	c-7.7,25.2-12.7,51.1-15.1,77.4l-77.5,21.9c-0.1,4.8-0.2,9.5-0.2,14.3c0,19.4,1.2,38.8,3.6,58.1l79.2,14.5
	c4.9,25.9,12.4,51.1,22.4,75.5l-58.5,55.4c10.6,21.8,22.9,42.7,36.8,62.5l76.9-24c16.4,20.6,34.7,39.5,54.9,56.3l-26,76.3
	c19.5,14.4,40,27.2,61.5,38.4l57-56.9c24.1,10.7,49.1,18.8,74.9,24.4l12.4,79.6c23.3,3.5,46.8,5.3,70.3,5.3h2l24-76.9
	c26.2-1.7,52.2-6.1,77.6-13.1l48,64.7c22.9-7.9,45.1-17.6,66.5-28.9l-14.5-79.2c22.4-13.8,43.4-29.8,62.5-47.8l72.6,35
	c16.6-17.6,31.8-36.5,45.5-56.5l-49.7-63.4c13.5-22.6,24.7-46.5,33.3-71.3L2111.3,869.6z M1662.9,935.9
	c-105.8,0-191.5-85.7-191.5-191.5s85.7-191.5,191.5-191.5s191.5,85.8,191.5,191.5S1768.7,935.9,1662.9,935.9z"/>
<path class="st19" d="M1393.8,899.8c-1.6,0-3.1-0.7-4-2c-10.9-14.7-20.7-30.2-29.1-46.4c-1.3-2.4-0.3-5.5,2.1-6.8s5.5-0.3,6.8,2.1
	l0,0c8.2,15.8,17.7,30.8,28.3,45.1c1.7,2.2,1.2,5.3-1,7C1395.9,899.4,1394.9,899.8,1393.8,899.8L1393.8,899.8z"/>
<path class="st19" d="M1623.4,1034.9c-0.2,0-0.4,0-0.7,0c-60.1-7.9-117.1-31.5-165.3-68.4c-2.2-1.7-2.6-4.8-0.9-7s4.8-2.6,7-0.9l0,0
	c46.7,35.8,102.1,58.8,160.5,66.5c2.8,0.2,4.9,2.6,4.7,5.3C1628.5,1033.1,1626.1,1035.2,1623.4,1034.9L1623.4,1034.9z"/>
<rect x="1669.4" y="513.1" class="st18" width="909.1" height="504.4"/>
<rect x="1688.4" y="536.1" class="st19" width="873.1" height="459.4"/>
<g class="st21">
	<path class="st18" d="M2539.2,969.4h-828c-1.1,0-2-0.9-2-2V552.6c0-1.1,0.9-2,2-2h828c1.1,0,2,0.9,2,2v414.8
		C2541.2,968.5,2540.3,969.4,2539.2,969.4z M1713.2,965.4h824V554.6h-824V965.4z"/>
	<path class="st18" d="M2539.2,900.3h-828c-1.1,0-2-0.9-2-2s0.9-2,2-2h828c1.1,0,2,0.9,2,2S2540.3,900.3,2539.2,900.3z"/>
	<path class="st18" d="M2539.2,831.2h-828c-1.1,0-2-0.9-2-2s0.9-2,2-2h828c1.1,0,2,0.9,2,2S2540.3,831.2,2539.2,831.2z"/>
	<path class="st18" d="M2539.2,762h-828c-1.1,0-2-0.9-2-2s0.9-2,2-2h828c1.1,0,2,0.9,2,2S2540.3,762,2539.2,762z"/>
	<path class="st18" d="M2539.2,692.9h-828c-1.1,0-2-0.9-2-2c0-1.1,0.9-2,2-2h828c1.1,0,2,0.9,2,2
		C2541.2,692,2540.3,692.9,2539.2,692.9z"/>
	<path class="st18" d="M2539.2,623.7h-828c-1.1,0-2-0.9-2-2s0.9-2,2-2h828c1.1,0,2,0.9,2,2S2540.3,623.7,2539.2,623.7z"/>
	<path class="st18" d="M2401.2,969.4c-1.1,0-2-0.9-2-2V552.6c0-1.1,0.9-2,2-2s2,0.9,2,2v414.8
		C2403.2,968.5,2402.3,969.4,2401.2,969.4z"/>
	<path class="st18" d="M2263.2,969.4c-1.1,0-2-0.9-2-2V552.6c0-1.1,0.9-2,2-2s2,0.9,2,2v414.8
		C2265.2,968.5,2264.3,969.4,2263.2,969.4z"/>
	<path class="st18" d="M2125.2,969.4c-1.1,0-2-0.9-2-2V552.6c0-1.1,0.9-2,2-2s2,0.9,2,2v414.8
		C2127.2,968.5,2126.3,969.4,2125.2,969.4z"/>
	<path class="st18" d="M1987.2,969.4c-1.1,0-2-0.9-2-2V552.6c0-1.1,0.9-2,2-2s2,0.9,2,2v414.8
		C1989.2,968.5,1988.3,969.4,1987.2,969.4z"/>
	<path class="st18" d="M1849.2,969.4c-1.1,0-2-0.9-2-2V552.6c0-1.1,0.9-2,2-2s2,0.9,2,2v414.8
		C1851.2,968.5,1850.3,969.4,1849.2,969.4z"/>
</g>
<path class="st22" d="M1711.2,971.4c-2.2,0-4-1.8-4-4c0-1.5,0.9-2.9,2.2-3.6l137.5-68.9l70.9-68.2l65.8-137.6
	c0.2-0.5,0.6-0.9,0.9-1.3l74.8-66.7c1.6-1.5,4.2-1.3,5.6,0.3c0.3,0.3,0.5,0.6,0.6,1l63.1,135.7l75,133.2l56.4-64.9
	c0.7-0.8,1.8-1.3,2.9-1.4c1.1-0.1,2.2,0.4,3,1.2l64.2,64.5l67.1-201.3c0.2-0.6,0.5-1.1,1-1.6l138-138.3c1.6-1.5,4.1-1.5,5.7,0.1
	c1.5,1.5,1.5,4,0,5.5L2404.7,693l-68.9,206.5c-0.7,2.1-3,3.2-5.1,2.5c-0.6-0.2-1.1-0.5-1.6-1l-65.8-66.1l-57.4,65.9
	c-1.5,1.7-4,1.8-5.6,0.4c-0.3-0.3-0.6-0.7-0.9-1.1L2121.7,762l-0.1-0.3l-60.9-130.9l-70.2,62.6l-65.8,137.5
	c-0.2,0.4-0.5,0.8-0.8,1.2l-71.8,69.1c-0.3,0.3-0.6,0.5-1,0.7l-138,69.1C1712.4,971.3,1711.8,971.4,1711.2,971.4z"/>
<path class="st18" d="M1711.2,971.4c-2.2,0-4-1.8-4-4c0-1,0.4-2,1.1-2.8l202.4-207.4c1.5-1.6,4-1.6,5.6-0.1l70.8,66.5l135.3-135.5
	c1.5-1.5,4-1.6,5.6-0.1l68.9,66.4l63.4-66.2c0.7-0.8,1.8-1.2,2.9-1.2c1.1,0,2.1,0.4,2.9,1.2l134.1,134.3l135.5-271.6
	c1-2,3.4-2.8,5.4-1.8s2.8,3.4,1.8,5.4l-138,276.5c-1,2-3.4,2.8-5.4,1.8c-0.4-0.2-0.7-0.4-1-0.8l-135.1-135.3l-63.4,66.2
	c-1.5,1.6-4.1,1.7-5.7,0.1l0,0l-69-66.4L1990.1,832c-1.5,1.5-4,1.6-5.6,0.1l-70.8-66.5l-199.6,204.6
	C1713.3,971,1712.3,971.4,1711.2,971.4z"/>
<path class="st18" d="M1462.7,313.1h292.6c5.5,0,9.9,4.4,9.9,9.9v381c0,36.1-29.2,65.3-65.3,65.3l0,0h-247l0,0V322.9
	C1452.8,317.5,1457.2,313.1,1462.7,313.1z"/>
<path class="st19" d="M1465.7,320.8h279.5c5.2,0,9.4,4.2,9.4,9.4v364.5c0,34.2-27.8,62-62,62h-236.2l0,0V330.1
	C1456.3,325,1460.5,320.8,1465.7,320.8L1465.7,320.8z"/>
<path class="st18" d="M1631.8,667.3v-7.9c0-6.2-4.3-11.2-9.7-11.2H1323c-5.4,0-9.7,5-9.7,11.2v7.9c0,55.7,39,100.9,87.2,100.9h305.6
	C1658,768.2,1631.2,728.1,1631.8,667.3z"/>
<path class="st19" d="M1624.5,675.1v-6.4c0-5-4.1-9.1-9.1-9.1l0,0h-280.1c-5,0-9.1,4.1-9.1,9.1l0,0v6.4c0,45.1,36.5,81.6,81.6,81.6
	l0,0H1706C1661,756.7,1624.5,734.9,1624.5,675.1z"/>
<path class="st18" d="M1723.2,502.6h-213c-6.8,0-12.2-5.5-12.2-12.3l0,0V374.7c0-6.8,5.5-12.2,12.2-12.2h213
	c6.7,0,12.2,5.5,12.2,12.2v115.7C1735.5,497.1,1730,502.6,1723.2,502.6C1723.3,502.6,1723.2,502.6,1723.2,502.6z M1510.2,366.5
	c-4.5,0-8.2,3.7-8.2,8.2v115.7c0,4.5,3.7,8.2,8.2,8.2h213c4.5,0,8.2-3.7,8.2-8.2V374.7c0-4.5-3.7-8.2-8.2-8.2H1510.2z"/>
<path class="st18" d="M1652.5,558.8h-234.1c-3.3,0-6.1-2.7-6.1-6s2.7-6,6.1-6h234.2c3.3,0,6,2.7,6,6S1655.8,558.8,1652.5,558.8
	L1652.5,558.8z"/>
<path class="st18" d="M1652.5,580.9h-234.1c-3.3,0-6.1-2.7-6.1-6c0-3.3,2.7-6,6.1-6h234.2c3.3,0,6,2.7,6,6
	C1658.6,578.2,1655.8,580.9,1652.5,580.9L1652.5,580.9z"/>
<path class="st18" d="M1652.5,602.2h-234.1c-3.3,0-6.1-2.7-6.1-6s2.7-6,6.1-6h234.2c3.3,0,6,2.7,6,6S1655.8,602.2,1652.5,602.2
	L1652.5,602.2z"/>
<path class="st18" d="M1657.3,380.9h7.8c1.7,0,3,1.3,3,3v6.5c0,1.7-1.3,3-3,3h-7.8c-1.7,0-3-1.3-3-3v-6.5
	C1654.3,382.2,1655.6,380.9,1657.3,380.9z"/>
<path class="st18" d="M1682.4,380.9h7.8c1.7,0,3,1.3,3,3v6.5c0,1.7-1.3,3-3,3h-7.8c-1.7,0-3-1.3-3-3v-6.5
	C1679.4,382.2,1680.7,380.9,1682.4,380.9z"/>
<path class="st18" d="M1707.5,380.9h7.8c1.7,0,3,1.3,3,3v6.5c0,1.7-1.3,3-3,3h-7.8c-1.7,0-3-1.3-3-3v-6.5
	C1704.5,382.2,1705.9,380.9,1707.5,380.9z"/>
<rect x="1521.3" y="432.6" class="st18" width="31.5" height="52"/>
<rect x="1608.2" y="436.9" class="st18" width="31.5" height="47.7"/>
<rect x="1658.5" y="415.6" class="st18" width="31.5" height="69"/>
<rect x="1563.9" y="453.1" class="st18" width="31.5" height="31.5"/>
<path class="st18" d="M3413.3,1011.3h112.2c0,61.6-50.7,112.2-112.2,112.2s-112.3-50.6-112.3-112.2s50.7-112.2,112.2-112.2
	L3413.3,1011.3z"/>
<path class="st22" d="M3544.3,995.6c0-62-50.3-112.2-112.2-112.2v112.2H3544.3z"/>
<path class="st22" d="M3319.8,995.6c0,62,50.3,112.2,112.2,112.2C3370.5,1107.9,3319.8,1057.2,3319.8,995.6z"/>
<path class="st22" d="M3432.1,883.4c-62,0-112.2,50.3-112.2,112.2C3319.8,934.1,3370.5,883.4,3432.1,883.4z"/>
<path class="st22" d="M3432.1,1107.9c62,0,112.2-50.3,112.2-112.2C3544.3,1057.2,3493.6,1107.9,3432.1,1107.9z"/>
<circle class="st22" cx="2062.1" cy="622.2" r="9.9"/>
<circle class="st18" cx="1914.1" cy="758" r="9.9"/>
<circle class="st18" cx="2125.2" cy="688.9" r="9.9"/>
<circle class="st18" cx="2263.2" cy="688.9" r="9.9"/>
<circle class="st22" cx="2401.2" cy="688.9" r="9.9"/>
<circle class="st23" cx="1379" cy="768.2" r="53.7"/>
<path class="st19" d="M1373.7,786.9L1373.7,786.9c-0.9,0-1.7-0.4-2.2-1l-14.6-16.6c-1.1-1.2-1-3.1,0.3-4.3s3.1-1,4.3,0.3l0,0
	l12.5,14.2l28.9-28.3c1.2-1.2,3.1-1.1,4.2,0c1.2,1.2,1.1,3.1,0,4.2l0,0l-31.2,30.5C1375.3,786.6,1374.5,786.9,1373.7,786.9z"/>
<rect x="2826.5" y="644.1" class="st18" width="35.8" height="103.4"/>
<g>
	<rect x="3493.8" y="520.1" class="st18" width="35.8" height="69.8"/>
	<rect x="3187.1" y="347.8" class="st18" width="35.8" height="242"/>
	<rect x="3262.8" y="481.1" class="st18" width="35.8" height="108.8"/>
	<rect x="3338.6" y="450.3" class="st18" width="35.8" height="139.6"/>
	<rect x="3111.3" y="418.1" class="st18" width="35.8" height="171.7"/>
	<rect x="3414.6" y="378.3" class="st18" width="35.8" height="211.5"/>
</g>
<path class="st18" d="M3419.3,1322.5h111.4c16.4,0,29.6,13.3,29.6,29.6v111.4c0,16.4-13.3,29.6-29.6,29.6h-111.4
	c-16.4,0-29.6-13.3-29.6-29.6v-111.4C3389.6,1335.8,3402.9,1322.5,3419.3,1322.5z"/>
<path class="st19" d="M3582.6,1524.3h-111.4c-19.1,0-34.6-15.5-34.6-34.6v-111.4c0-19.1,15.5-34.6,34.6-34.6h111.4
	c19.1,0,34.6,15.5,34.6,34.6v111.4C3617.2,1508.8,3601.7,1524.3,3582.6,1524.3z M3471.2,1353.7c-13.6,0-24.6,11-24.6,24.6v111.4
	c0,13.6,11,24.6,24.6,24.6h111.4c13.6,0,24.6-11,24.6-24.6v-111.4c0-13.6-11-24.6-24.6-24.6H3471.2z"/>
<path class="st18" d="M1483.1,1372.2l-28.4-32.8c-4.3-5-3.8-12.6,1.2-16.9l0,0l32.8-28.4c5-4.3,12.6-3.8,16.9,1.2l0,0l28.4,32.8
	c4.3,5,3.8,12.6-1.2,16.9l0,0l-32.8,28.4C1495.1,1377.7,1487.5,1377.2,1483.1,1372.2L1483.1,1372.2z"/>
<circle class="st18" cx="1628.8" cy="1399.6" r="25.1"/>
<circle class="st18" cx="3863.1" cy="1449.1" r="25"/>
<circle class="st18" cx="3137" cy="924.4" r="25"/>
<circle class="st18" cx="3698.4" cy="1248.9" r="19.5"/>
<path class="st18" d="M2520.8,617.1h414.6c4.5,0,8.2,3.7,8.2,8.2v178.4c0,4.5-3.7,8.2-8.2,8.2h-414.6c-4.5,0-8.2-3.7-8.2-8.2V625.3
	C2512.7,620.8,2516.3,617.1,2520.8,617.1z"/>
<path class="st19" d="M2531,668.3h394.1c3.6,0,6.6,3,6.6,6.6v121.2c0,3.6-3,6.6-6.6,6.6H2531c-3.6,0-6.6-3-6.6-6.6V674.9
	C2524.4,671.2,2527.4,668.3,2531,668.3z"/>
<path class="st19" d="M2534.1,631.4h9.6c2,0,3.7,1.6,3.7,3.7v7.9c0,2-1.6,3.7-3.7,3.7h-9.6c-2,0-3.7-1.6-3.7-3.7v-7.9
	C2530.4,633.1,2532.1,631.4,2534.1,631.4z"/>
<path class="st19" d="M2564.8,631.4h9.6c2,0,3.7,1.6,3.7,3.7v7.9c0,2-1.6,3.7-3.7,3.7h-9.6c-2,0-3.7-1.6-3.7-3.7v-7.9
	C2561.1,633.1,2562.8,631.4,2564.8,631.4z"/>
<path class="st19" d="M2595.5,631.4h9.6c2,0,3.7,1.6,3.7,3.7v7.9c0,2-1.6,3.7-3.7,3.7h-9.6c-2,0-3.7-1.6-3.7-3.7v-7.9
	C2591.8,633.1,2593.5,631.4,2595.5,631.4z"/>
<path class="st18" d="M2922,879.3h-215.5c-3.6-0.1-6.3-3.1-6.2-6.7c0.1-3.4,2.8-6.1,6.2-6.2H2922c3.6,0.1,6.3,3.1,6.2,6.7
	C2928.1,876.5,2925.4,879.2,2922,879.3z"/>
<path class="st18" d="M2753.2,797.2h-215.5c-3.6-0.1-6.3-3.1-6.2-6.7c0.1-3.4,2.8-6.1,6.2-6.2h215.5c3.6,0.1,6.3,3.1,6.2,6.7
	C2759.2,794.3,2756.5,797,2753.2,797.2z"/>
<path class="st18" d="M2777.3,965.9h22.3c1.2,0,2.2,1,2.2,2.2v8.5c0,1.2-1,2.2-2.2,2.2h-22.3c-1.2,0-2.2-1-2.2-2.2v-8.5
	C2775.1,966.9,2776.1,965.9,2777.3,965.9z"/>
<path class="st18" d="M2810.9,965.9h22.3c1.2,0,2.2,1,2.2,2.2v8.5c0,1.2-1,2.2-2.2,2.2h-22.3c-1.2,0-2.2-1-2.2-2.2v-8.5
	C2808.7,966.9,2809.7,965.9,2810.9,965.9z"/>
<path class="st18" d="M2917.2,725.8h-356.8c-2.4,0-4.4-2-4.4-4.4c0-2.4,2-4.4,4.4-4.4h356.8c2.4,0,4.4,2,4.4,4.4
	C2921.6,723.8,2919.7,725.8,2917.2,725.8z"/>
<path class="st18" d="M2917.2,744.7h-356.8c-2.4,0-4.4-2-4.4-4.4s2-4.4,4.4-4.4h356.8c2.4,0,4.4,2,4.4,4.4
	S2919.7,744.7,2917.2,744.7z"/>
<g>
	<rect x="642.5" y="372.7" class="st18" width="35.8" height="195"/>
	<rect x="794" y="429.4" class="st18" width="35.8" height="138.3"/>
	<rect x="869.8" y="372.7" class="st18" width="35.8" height="195"/>
	<rect x="945.5" y="498.6" class="st18" width="35.8" height="69.1"/>
	<rect x="718.3" y="313.3" class="st18" width="35.8" height="254.4"/>
	<rect x="1021.5" y="429.4" class="st18" width="35.8" height="138.3"/>
	<g>
		<g>
			<defs>
				<path id="SVGID_2_" d="M528.5,759.3c-78.6,0-142.2,63.7-142.2,142.2c0,78.6,63.7,142.2,142.2,142.2S670.7,980,670.7,901.5l0,0
					C670.7,822.9,607,759.3,528.5,759.3z M528.5,976.8c-41.6,0-75.3-33.7-75.3-75.3s33.7-75.3,75.3-75.3s75.3,33.7,75.3,75.3l0,0
					C603.9,943.1,570.1,976.9,528.5,976.8C528.5,976.9,528.5,976.9,528.5,976.8L528.5,976.8z"/>
			</defs>
			<clipPath id="SVGID_3_">
				<use xlink:href="#SVGID_2_"  style="overflow:visible;"/>
			</clipPath>
			<g class="st24">
				<path class="st25" d="M657.1,980.1l-128.6-78.6l-23.2,148.9C565.4,1059.8,625.3,1032.1,657.1,980.1z"/>
				<path class="st23" d="M657.2,980c0.3-0.6,0.8-1.3,0.8-1.3c27.1-45.4,28.3-101.7,3.3-148.3c-45.5,23.8-18.4,9.4-132.8,71.2
					C657.3,980.3,637.3,968.1,657.2,980z"/>
				<path class="st25" d="M387.2,849.5l141.3,52.1l132.6-71.7C599.1,715.2,432.2,728.9,387.2,849.5z"/>
				<path class="st22" d="M505.3,1050.4l23.2-148.9l-141.3-52.1C353.6,939.6,413.2,1035.9,505.3,1050.4z"/>
				<path class="st26" d="M663.9,978.4c25.5-45.2,27-100.1,3.9-146.5h0.1l-2.4-4.4l-0.2-0.3l-1.9-3.6h-0.1
					c-15-26.1-36.4-46.8-62.1-60.3c-25.5-13.2-54.2-19.1-82.8-17c-60.4,4.2-111.3,41.1-134,96.7h-0.1l-1.8,4.7l-1.8,4.7h0.1
					c-14.2,42.2-9.4,88.6,13.2,127c22.6,39.1,61.1,66.5,105.5,75v0.1l4.9,0.8l5,0.8v-0.1c58.9,7.2,116.8-19.6,149.4-69.3l0.1,0.1
					l1-1.6l1.6-2.6l0.7-1.2l0.1-0.2l0.1-0.1l1.6-2.6L663.9,978.4z M648.8,842.5l10.4-5.4c21.2,43.2,19.8,94-3.8,136l-1-0.6
					c-5.3-3.1-7.5-4.5-18-10.8l-97.9-59.9l81.3-44C631.8,851.4,636.7,848.8,648.8,842.5z M393.7,846.5
					c21.3-51.9,68.9-86.2,125.3-90.2c55.8-3.9,107.1,23.4,135.2,71.5L615.1,849c-8.1,4.3-19.4,10.5-38.3,20.7l-46.9,25.4l-1.2,0.7
					l-3.9-2.4l-0.2,1.4L462.7,872L393.7,846.5z M402.7,974.4c-21.1-35.9-25.6-79.1-12.4-118.5l93.1,34.3l39.6,14.6l-21.8,139.8
					C459.7,1036.5,423.8,1010.9,402.7,974.4L402.7,974.4z M511,1046.1l21.3-136.5l55.5,33.9c22.4,13.7,35.2,21.5,43.2,26.4
					l19.2,11.7C619.8,1028,565.9,1052.9,511,1046.1L511,1046.1z"/>
			</g>
		</g>
	</g>
	<circle class="st18" cx="393.2" cy="1229.4" r="44.9"/>
	<circle class="st19" cx="403.7" cy="1231.4" r="22.5"/>
	<circle class="st18" cx="403.7" cy="540" r="49.5"/>
</g>
<path class="st18" d="M1078.7,1004.5H723c-3.6,0-6.6-3-6.6-6.6s3-6.6,6.6-6.6h355.6c3.6,0,6.6,3,6.6,6.6
	C1085.2,1001.6,1082.3,1004.5,1078.7,1004.5L1078.7,1004.5z"/>
<path class="st18" d="M1078.7,1037.5H723c-3.6,0-6.6-3-6.6-6.6s3-6.6,6.6-6.6h355.6c3.6,0,6.6,3,6.6,6.6
	S1082.3,1037.5,1078.7,1037.5L1078.7,1037.5z"/>
</svg>
